  0
SECTION
  2
BLOCKS
  0
ENDSEC
  0
SECTION
  2
ENTITIES
  0
LINE
  8
0
 10
92.3921
 20
-37.9807
 11
92.7804
 21
-37.9231
  0
LINE
  8
0
 10
92.7804
 20
-37.9231
 11
93.1611
 21
-37.8278
  0
LINE
  8
0
 10
93.1611
 20
-37.8278
 11
93.5307
 21
-37.6955
  0
LINE
  8
0
 10
93.5307
 20
-37.6955
 11
93.8856
 21
-37.5277
  0
LINE
  8
0
 10
93.8856
 20
-37.5277
 11
94.2223
 21
-37.3259
  0
LINE
  8
0
 10
94.2223
 20
-37.3259
 11
94.5376
 21
-37.092
  0
LINE
  8
0
 10
94.5376
 20
-37.092
 11
94.8284
 21
-36.8284
  0
LINE
  8
0
 10
94.8284
 20
-36.8284
 11
95.092
 21
-36.5376
  0
LINE
  8
0
 10
95.092
 20
-36.5376
 11
95.3259
 21
-36.2223
  0
LINE
  8
0
 10
95.3259
 20
-36.2223
 11
95.5277
 21
-35.8856
  0
LINE
  8
0
 10
95.5277
 20
-35.8856
 11
95.6955
 21
-35.5307
  0
LINE
  8
0
 10
95.6955
 20
-35.5307
 11
95.8278
 21
-35.1611
  0
LINE
  8
0
 10
95.8278
 20
-35.1611
 11
95.9231
 21
-34.7804
  0
LINE
  8
0
 10
95.9231
 20
-34.7804
 11
95.9807
 21
-34.3921
  0
LINE
  8
0
 10
95.9807
 20
-34.3921
 11
96
 21
-34
  0
LINE
  8
0
 10
96
 20
-34
 11
96
 21
62
  0
LINE
  8
0
 10
96
 20
62
 11
95.9807
 21
62.3921
  0
LINE
  8
0
 10
95.9807
 20
62.3921
 11
95.9231
 21
62.7804
  0
LINE
  8
0
 10
95.9231
 20
62.7804
 11
95.8278
 21
63.1611
  0
LINE
  8
0
 10
95.8278
 20
63.1611
 11
95.6955
 21
63.5307
  0
LINE
  8
0
 10
95.6955
 20
63.5307
 11
95.5277
 21
63.8856
  0
LINE
  8
0
 10
95.5277
 20
63.8856
 11
95.3259
 21
64.2223
  0
LINE
  8
0
 10
95.3259
 20
64.2223
 11
95.092
 21
64.5376
  0
LINE
  8
0
 10
95.092
 20
64.5376
 11
94.8284
 21
64.8284
  0
LINE
  8
0
 10
94.8284
 20
64.8284
 11
94.5376
 21
65.092
  0
LINE
  8
0
 10
94.5376
 20
65.092
 11
94.2223
 21
65.3259
  0
LINE
  8
0
 10
94.2223
 20
65.3259
 11
93.8856
 21
65.5277
  0
LINE
  8
0
 10
93.8856
 20
65.5277
 11
93.5307
 21
65.6955
  0
LINE
  8
0
 10
93.5307
 20
65.6955
 11
93.1611
 21
65.8278
  0
LINE
  8
0
 10
93.1611
 20
65.8278
 11
92.7804
 21
65.9231
  0
LINE
  8
0
 10
92.7804
 20
65.9231
 11
92.3921
 21
65.9807
  0
LINE
  8
0
 10
92.3921
 20
65.9807
 11
92
 21
66
  0
LINE
  8
0
 10
92
 20
66
 11
4
 21
66
  0
LINE
  8
0
 10
4
 20
66
 11
3.60793
 21
65.9807
  0
LINE
  8
0
 10
3.60793
 20
65.9807
 11
3.21964
 21
65.9231
  0
LINE
  8
0
 10
3.21964
 20
65.9231
 11
2.83887
 21
65.8278
  0
LINE
  8
0
 10
2.83887
 20
65.8278
 11
2.46927
 21
65.6955
  0
LINE
  8
0
 10
2.46927
 20
65.6955
 11
2.11441
 21
65.5277
  0
LINE
  8
0
 10
2.11441
 20
65.5277
 11
1.77773
 21
65.3259
  0
LINE
  8
0
 10
1.77773
 20
65.3259
 11
1.46243
 21
65.092
  0
LINE
  8
0
 10
1.46243
 20
65.092
 11
1.17157
 21
64.8284
  0
LINE
  8
0
 10
1.17157
 20
64.8284
 11
0.907959
 21
64.5376
  0
LINE
  8
0
 10
0.907959
 20
64.5376
 11
0.674118
 21
64.2223
  0
LINE
  8
0
 10
0.674118
 20
64.2223
 11
0.472321
 21
63.8856
  0
LINE
  8
0
 10
0.472321
 20
63.8856
 11
0.304489
 21
63.5307
  0
LINE
  8
0
 10
0.304489
 20
63.5307
 11
0.172241
 21
63.1611
  0
LINE
  8
0
 10
0.172241
 20
63.1611
 11
0.0768585
 21
62.7804
  0
LINE
  8
0
 10
0.0768585
 20
62.7804
 11
0.0192566
 21
62.3921
  0
LINE
  8
0
 10
0.0192566
 20
62.3921
 11
0
 21
62
  0
LINE
  8
0
 10
0
 20
62
 11
0
 21
-34
  0
LINE
  8
0
 10
0
 20
-34
 11
0.0192566
 21
-34.3921
  0
LINE
  8
0
 10
0.0192566
 20
-34.3921
 11
0.0768585
 21
-34.7804
  0
LINE
  8
0
 10
0.0768585
 20
-34.7804
 11
0.172241
 21
-35.1611
  0
LINE
  8
0
 10
0.172241
 20
-35.1611
 11
0.304489
 21
-35.5307
  0
LINE
  8
0
 10
0.304489
 20
-35.5307
 11
0.472321
 21
-35.8856
  0
LINE
  8
0
 10
0.472321
 20
-35.8856
 11
0.674118
 21
-36.2223
  0
LINE
  8
0
 10
0.674118
 20
-36.2223
 11
0.907959
 21
-36.5376
  0
LINE
  8
0
 10
0.907959
 20
-36.5376
 11
1.17157
 21
-36.8284
  0
LINE
  8
0
 10
1.17157
 20
-36.8284
 11
1.46243
 21
-37.092
  0
LINE
  8
0
 10
1.46243
 20
-37.092
 11
1.77773
 21
-37.3259
  0
LINE
  8
0
 10
1.77773
 20
-37.3259
 11
2.11441
 21
-37.5277
  0
LINE
  8
0
 10
2.11441
 20
-37.5277
 11
2.46927
 21
-37.6955
  0
LINE
  8
0
 10
2.46927
 20
-37.6955
 11
2.83887
 21
-37.8278
  0
LINE
  8
0
 10
2.83887
 20
-37.8278
 11
3.21964
 21
-37.9231
  0
LINE
  8
0
 10
3.21964
 20
-37.9231
 11
3.60793
 21
-37.9807
  0
LINE
  8
0
 10
3.60793
 20
-37.9807
 11
4
 21
-38
  0
LINE
  8
0
 10
4
 20
-38
 11
92
 21
-38
  0
LINE
  8
0
 10
92
 20
-38
 11
92.3921
 21
-37.9807
  0
LINE
  8
0
 10
3.83336
 20
60.3082
 11
3.66833
 21
60.3327
  0
LINE
  8
0
 10
3.66833
 20
60.3327
 11
3.50652
 21
60.3732
  0
LINE
  8
0
 10
3.50652
 20
60.3732
 11
3.34943
 21
60.4294
  0
LINE
  8
0
 10
3.34943
 20
60.4294
 11
3.19862
 21
60.5007
  0
LINE
  8
0
 10
3.19862
 20
60.5007
 11
3.05553
 21
60.5865
  0
LINE
  8
0
 10
3.05553
 20
60.5865
 11
2.92152
 21
60.6859
  0
LINE
  8
0
 10
2.92152
 20
60.6859
 11
2.79791
 21
60.7979
  0
LINE
  8
0
 10
2.79791
 20
60.7979
 11
2.68587
 21
60.9215
  0
LINE
  8
0
 10
2.68587
 20
60.9215
 11
2.58649
 21
61.0555
  0
LINE
  8
0
 10
2.58649
 20
61.0555
 11
2.50073
 21
61.1986
  0
LINE
  8
0
 10
2.50073
 20
61.1986
 11
2.4294
 21
61.3494
  0
LINE
  8
0
 10
2.4294
 20
61.3494
 11
2.3732
 21
61.5065
  0
LINE
  8
0
 10
2.3732
 20
61.5065
 11
2.33266
 21
61.6683
  0
LINE
  8
0
 10
2.33266
 20
61.6683
 11
2.30818
 21
61.8334
  0
LINE
  8
0
 10
2.30818
 20
61.8334
 11
2.29999
 21
62
  0
LINE
  8
0
 10
2.29999
 20
62
 11
2.30818
 21
62.1666
  0
LINE
  8
0
 10
2.30818
 20
62.1666
 11
2.33266
 21
62.3316
  0
LINE
  8
0
 10
2.33266
 20
62.3316
 11
2.3732
 21
62.4935
  0
LINE
  8
0
 10
2.3732
 20
62.4935
 11
2.4294
 21
62.6506
  0
LINE
  8
0
 10
2.4294
 20
62.6506
 11
2.50073
 21
62.8014
  0
LINE
  8
0
 10
2.50073
 20
62.8014
 11
2.58649
 21
62.9445
  0
LINE
  8
0
 10
2.58649
 20
62.9445
 11
2.68587
 21
63.0785
  0
LINE
  8
0
 10
2.68587
 20
63.0785
 11
2.79791
 21
63.2021
  0
LINE
  8
0
 10
2.79791
 20
63.2021
 11
2.92152
 21
63.3141
  0
LINE
  8
0
 10
2.92152
 20
63.3141
 11
3.05553
 21
63.4135
  0
LINE
  8
0
 10
3.05553
 20
63.4135
 11
3.19862
 21
63.4993
  0
LINE
  8
0
 10
3.19862
 20
63.4993
 11
3.34943
 21
63.5706
  0
LINE
  8
0
 10
3.34943
 20
63.5706
 11
3.50652
 21
63.6268
  0
LINE
  8
0
 10
3.50652
 20
63.6268
 11
3.66833
 21
63.6673
  0
LINE
  8
0
 10
3.66833
 20
63.6673
 11
3.83336
 21
63.6918
  0
LINE
  8
0
 10
3.83336
 20
63.6918
 11
4
 21
63.7
  0
LINE
  8
0
 10
4
 20
63.7
 11
4.16663
 21
63.6918
  0
LINE
  8
0
 10
4.16663
 20
63.6918
 11
4.33165
 21
63.6673
  0
LINE
  8
0
 10
4.33165
 20
63.6673
 11
4.49347
 21
63.6268
  0
LINE
  8
0
 10
4.49347
 20
63.6268
 11
4.65056
 21
63.5706
  0
LINE
  8
0
 10
4.65056
 20
63.5706
 11
4.80136
 21
63.4993
  0
LINE
  8
0
 10
4.80136
 20
63.4993
 11
4.94446
 21
63.4135
  0
LINE
  8
0
 10
4.94446
 20
63.4135
 11
5.07846
 21
63.3141
  0
LINE
  8
0
 10
5.07846
 20
63.3141
 11
5.20207
 21
63.2021
  0
LINE
  8
0
 10
5.20207
 20
63.2021
 11
5.31412
 21
63.0785
  0
LINE
  8
0
 10
5.31412
 20
63.0785
 11
5.4135
 21
62.9445
  0
LINE
  8
0
 10
5.4135
 20
62.9445
 11
5.49925
 21
62.8014
  0
LINE
  8
0
 10
5.49925
 20
62.8014
 11
5.57059
 21
62.6506
  0
LINE
  8
0
 10
5.57059
 20
62.6506
 11
5.62679
 21
62.4935
  0
LINE
  8
0
 10
5.62679
 20
62.4935
 11
5.66733
 21
62.3316
  0
LINE
  8
0
 10
5.66733
 20
62.3316
 11
5.6918
 21
62.1666
  0
LINE
  8
0
 10
5.6918
 20
62.1666
 11
5.7
 21
62
  0
LINE
  8
0
 10
5.7
 20
62
 11
5.6918
 21
61.8334
  0
LINE
  8
0
 10
5.6918
 20
61.8334
 11
5.66733
 21
61.6683
  0
LINE
  8
0
 10
5.66733
 20
61.6683
 11
5.62679
 21
61.5065
  0
LINE
  8
0
 10
5.62679
 20
61.5065
 11
5.57059
 21
61.3494
  0
LINE
  8
0
 10
5.57059
 20
61.3494
 11
5.49925
 21
61.1986
  0
LINE
  8
0
 10
5.49925
 20
61.1986
 11
5.4135
 21
61.0555
  0
LINE
  8
0
 10
5.4135
 20
61.0555
 11
5.31412
 21
60.9215
  0
LINE
  8
0
 10
5.31412
 20
60.9215
 11
5.20207
 21
60.7979
  0
LINE
  8
0
 10
5.20207
 20
60.7979
 11
5.07846
 21
60.6859
  0
LINE
  8
0
 10
5.07846
 20
60.6859
 11
4.94446
 21
60.5865
  0
LINE
  8
0
 10
4.94446
 20
60.5865
 11
4.80136
 21
60.5007
  0
LINE
  8
0
 10
4.80136
 20
60.5007
 11
4.65056
 21
60.4294
  0
LINE
  8
0
 10
4.65056
 20
60.4294
 11
4.49347
 21
60.3732
  0
LINE
  8
0
 10
4.49347
 20
60.3732
 11
4.33165
 21
60.3327
  0
LINE
  8
0
 10
4.33165
 20
60.3327
 11
4.16663
 21
60.3082
  0
LINE
  8
0
 10
4.16663
 20
60.3082
 11
4
 21
60.3
  0
LINE
  8
0
 10
4
 20
60.3
 11
3.83336
 21
60.3082
  0
LINE
  8
0
 10
91.8334
 20
60.3082
 11
91.6683
 21
60.3327
  0
LINE
  8
0
 10
91.6683
 20
60.3327
 11
91.5065
 21
60.3732
  0
LINE
  8
0
 10
91.5065
 20
60.3732
 11
91.3494
 21
60.4294
  0
LINE
  8
0
 10
91.3494
 20
60.4294
 11
91.1986
 21
60.5007
  0
LINE
  8
0
 10
91.1986
 20
60.5007
 11
91.0555
 21
60.5865
  0
LINE
  8
0
 10
91.0555
 20
60.5865
 11
90.9215
 21
60.6859
  0
LINE
  8
0
 10
90.9215
 20
60.6859
 11
90.7979
 21
60.7979
  0
LINE
  8
0
 10
90.7979
 20
60.7979
 11
90.6859
 21
60.9215
  0
LINE
  8
0
 10
90.6859
 20
60.9215
 11
90.5865
 21
61.0555
  0
LINE
  8
0
 10
90.5865
 20
61.0555
 11
90.5007
 21
61.1986
  0
LINE
  8
0
 10
90.5007
 20
61.1986
 11
90.4294
 21
61.3494
  0
LINE
  8
0
 10
90.4294
 20
61.3494
 11
90.3732
 21
61.5065
  0
LINE
  8
0
 10
90.3732
 20
61.5065
 11
90.3327
 21
61.6683
  0
LINE
  8
0
 10
90.3327
 20
61.6683
 11
90.3082
 21
61.8334
  0
LINE
  8
0
 10
90.3082
 20
61.8334
 11
90.3
 21
62
  0
LINE
  8
0
 10
90.3
 20
62
 11
90.3082
 21
62.1666
  0
LINE
  8
0
 10
90.3082
 20
62.1666
 11
90.3327
 21
62.3316
  0
LINE
  8
0
 10
90.3327
 20
62.3316
 11
90.3732
 21
62.4935
  0
LINE
  8
0
 10
90.3732
 20
62.4935
 11
90.4294
 21
62.6506
  0
LINE
  8
0
 10
90.4294
 20
62.6506
 11
90.5007
 21
62.8014
  0
LINE
  8
0
 10
90.5007
 20
62.8014
 11
90.5865
 21
62.9445
  0
LINE
  8
0
 10
90.5865
 20
62.9445
 11
90.6859
 21
63.0785
  0
LINE
  8
0
 10
90.6859
 20
63.0785
 11
90.7979
 21
63.2021
  0
LINE
  8
0
 10
90.7979
 20
63.2021
 11
90.9215
 21
63.3141
  0
LINE
  8
0
 10
90.9215
 20
63.3141
 11
91.0555
 21
63.4135
  0
LINE
  8
0
 10
91.0555
 20
63.4135
 11
91.1986
 21
63.4993
  0
LINE
  8
0
 10
91.1986
 20
63.4993
 11
91.3494
 21
63.5706
  0
LINE
  8
0
 10
91.3494
 20
63.5706
 11
91.5065
 21
63.6268
  0
LINE
  8
0
 10
91.5065
 20
63.6268
 11
91.6683
 21
63.6673
  0
LINE
  8
0
 10
91.6683
 20
63.6673
 11
91.8334
 21
63.6918
  0
LINE
  8
0
 10
91.8334
 20
63.6918
 11
92
 21
63.7
  0
LINE
  8
0
 10
92
 20
63.7
 11
92.1666
 21
63.6918
  0
LINE
  8
0
 10
92.1666
 20
63.6918
 11
92.3316
 21
63.6673
  0
LINE
  8
0
 10
92.3316
 20
63.6673
 11
92.4935
 21
63.6268
  0
LINE
  8
0
 10
92.4935
 20
63.6268
 11
92.6506
 21
63.5706
  0
LINE
  8
0
 10
92.6506
 20
63.5706
 11
92.8014
 21
63.4993
  0
LINE
  8
0
 10
92.8014
 20
63.4993
 11
92.9445
 21
63.4135
  0
LINE
  8
0
 10
92.9445
 20
63.4135
 11
93.0785
 21
63.3141
  0
LINE
  8
0
 10
93.0785
 20
63.3141
 11
93.2021
 21
63.2021
  0
LINE
  8
0
 10
93.2021
 20
63.2021
 11
93.3141
 21
63.0785
  0
LINE
  8
0
 10
93.3141
 20
63.0785
 11
93.4135
 21
62.9445
  0
LINE
  8
0
 10
93.4135
 20
62.9445
 11
93.4993
 21
62.8014
  0
LINE
  8
0
 10
93.4993
 20
62.8014
 11
93.5706
 21
62.6506
  0
LINE
  8
0
 10
93.5706
 20
62.6506
 11
93.6268
 21
62.4935
  0
LINE
  8
0
 10
93.6268
 20
62.4935
 11
93.6673
 21
62.3316
  0
LINE
  8
0
 10
93.6673
 20
62.3316
 11
93.6918
 21
62.1666
  0
LINE
  8
0
 10
93.6918
 20
62.1666
 11
93.7
 21
62
  0
LINE
  8
0
 10
93.7
 20
62
 11
93.6918
 21
61.8334
  0
LINE
  8
0
 10
93.6918
 20
61.8334
 11
93.6673
 21
61.6683
  0
LINE
  8
0
 10
93.6673
 20
61.6683
 11
93.6268
 21
61.5065
  0
LINE
  8
0
 10
93.6268
 20
61.5065
 11
93.5706
 21
61.3494
  0
LINE
  8
0
 10
93.5706
 20
61.3494
 11
93.4993
 21
61.1986
  0
LINE
  8
0
 10
93.4993
 20
61.1986
 11
93.4135
 21
61.0555
  0
LINE
  8
0
 10
93.4135
 20
61.0555
 11
93.3141
 21
60.9215
  0
LINE
  8
0
 10
93.3141
 20
60.9215
 11
93.2021
 21
60.7979
  0
LINE
  8
0
 10
93.2021
 20
60.7979
 11
93.0785
 21
60.6859
  0
LINE
  8
0
 10
93.0785
 20
60.6859
 11
92.9445
 21
60.5865
  0
LINE
  8
0
 10
92.9445
 20
60.5865
 11
92.8014
 21
60.5007
  0
LINE
  8
0
 10
92.8014
 20
60.5007
 11
92.6506
 21
60.4294
  0
LINE
  8
0
 10
92.6506
 20
60.4294
 11
92.4935
 21
60.3732
  0
LINE
  8
0
 10
92.4935
 20
60.3732
 11
92.3316
 21
60.3327
  0
LINE
  8
0
 10
92.3316
 20
60.3327
 11
92.1666
 21
60.3082
  0
LINE
  8
0
 10
92.1666
 20
60.3082
 11
92
 21
60.3
  0
LINE
  8
0
 10
92
 20
60.3
 11
91.8334
 21
60.3082
  0
LINE
  8
0
 10
3.83336
 20
2.30818
 11
3.66833
 21
2.33266
  0
LINE
  8
0
 10
3.66833
 20
2.33266
 11
3.50652
 21
2.3732
  0
LINE
  8
0
 10
3.50652
 20
2.3732
 11
3.34943
 21
2.4294
  0
LINE
  8
0
 10
3.34943
 20
2.4294
 11
3.19862
 21
2.50073
  0
LINE
  8
0
 10
3.19862
 20
2.50073
 11
3.05553
 21
2.58649
  0
LINE
  8
0
 10
3.05553
 20
2.58649
 11
2.92152
 21
2.68587
  0
LINE
  8
0
 10
2.92152
 20
2.68587
 11
2.79791
 21
2.79791
  0
LINE
  8
0
 10
2.79791
 20
2.79791
 11
2.68587
 21
2.92152
  0
LINE
  8
0
 10
2.68587
 20
2.92152
 11
2.58649
 21
3.05553
  0
LINE
  8
0
 10
2.58649
 20
3.05553
 11
2.50073
 21
3.19862
  0
LINE
  8
0
 10
2.50073
 20
3.19862
 11
2.4294
 21
3.34943
  0
LINE
  8
0
 10
2.4294
 20
3.34943
 11
2.3732
 21
3.50652
  0
LINE
  8
0
 10
2.3732
 20
3.50652
 11
2.33266
 21
3.66833
  0
LINE
  8
0
 10
2.33266
 20
3.66833
 11
2.30818
 21
3.83336
  0
LINE
  8
0
 10
2.30818
 20
3.83336
 11
2.29999
 21
4
  0
LINE
  8
0
 10
2.29999
 20
4
 11
2.30818
 21
4.16663
  0
LINE
  8
0
 10
2.30818
 20
4.16663
 11
2.33266
 21
4.33165
  0
LINE
  8
0
 10
2.33266
 20
4.33165
 11
2.3732
 21
4.49347
  0
LINE
  8
0
 10
2.3732
 20
4.49347
 11
2.4294
 21
4.65056
  0
LINE
  8
0
 10
2.4294
 20
4.65056
 11
2.50073
 21
4.80136
  0
LINE
  8
0
 10
2.50073
 20
4.80136
 11
2.58649
 21
4.94446
  0
LINE
  8
0
 10
2.58649
 20
4.94446
 11
2.68587
 21
5.07846
  0
LINE
  8
0
 10
2.68587
 20
5.07846
 11
2.79791
 21
5.20207
  0
LINE
  8
0
 10
2.79791
 20
5.20207
 11
2.92152
 21
5.31412
  0
LINE
  8
0
 10
2.92152
 20
5.31412
 11
3.05553
 21
5.4135
  0
LINE
  8
0
 10
3.05553
 20
5.4135
 11
3.19862
 21
5.49925
  0
LINE
  8
0
 10
3.19862
 20
5.49925
 11
3.34943
 21
5.57059
  0
LINE
  8
0
 10
3.34943
 20
5.57059
 11
3.50652
 21
5.62679
  0
LINE
  8
0
 10
3.50652
 20
5.62679
 11
3.66833
 21
5.66733
  0
LINE
  8
0
 10
3.66833
 20
5.66733
 11
3.83336
 21
5.6918
  0
LINE
  8
0
 10
3.83336
 20
5.6918
 11
4
 21
5.7
  0
LINE
  8
0
 10
4
 20
5.7
 11
4.16663
 21
5.6918
  0
LINE
  8
0
 10
4.16663
 20
5.6918
 11
4.33165
 21
5.66733
  0
LINE
  8
0
 10
4.33165
 20
5.66733
 11
4.49347
 21
5.62679
  0
LINE
  8
0
 10
4.49347
 20
5.62679
 11
4.65056
 21
5.57059
  0
LINE
  8
0
 10
4.65056
 20
5.57059
 11
4.80136
 21
5.49925
  0
LINE
  8
0
 10
4.80136
 20
5.49925
 11
4.94446
 21
5.4135
  0
LINE
  8
0
 10
4.94446
 20
5.4135
 11
5.07846
 21
5.31412
  0
LINE
  8
0
 10
5.07846
 20
5.31412
 11
5.20207
 21
5.20207
  0
LINE
  8
0
 10
5.20207
 20
5.20207
 11
5.31412
 21
5.07846
  0
LINE
  8
0
 10
5.31412
 20
5.07846
 11
5.4135
 21
4.94446
  0
LINE
  8
0
 10
5.4135
 20
4.94446
 11
5.49925
 21
4.80136
  0
LINE
  8
0
 10
5.49925
 20
4.80136
 11
5.57059
 21
4.65056
  0
LINE
  8
0
 10
5.57059
 20
4.65056
 11
5.62679
 21
4.49347
  0
LINE
  8
0
 10
5.62679
 20
4.49347
 11
5.66733
 21
4.33165
  0
LINE
  8
0
 10
5.66733
 20
4.33165
 11
5.6918
 21
4.16663
  0
LINE
  8
0
 10
5.6918
 20
4.16663
 11
5.7
 21
4
  0
LINE
  8
0
 10
5.7
 20
4
 11
5.6918
 21
3.83336
  0
LINE
  8
0
 10
5.6918
 20
3.83336
 11
5.66733
 21
3.66833
  0
LINE
  8
0
 10
5.66733
 20
3.66833
 11
5.62679
 21
3.50652
  0
LINE
  8
0
 10
5.62679
 20
3.50652
 11
5.57059
 21
3.34943
  0
LINE
  8
0
 10
5.57059
 20
3.34943
 11
5.49925
 21
3.19862
  0
LINE
  8
0
 10
5.49925
 20
3.19862
 11
5.4135
 21
3.05553
  0
LINE
  8
0
 10
5.4135
 20
3.05553
 11
5.31412
 21
2.92152
  0
LINE
  8
0
 10
5.31412
 20
2.92152
 11
5.20207
 21
2.79791
  0
LINE
  8
0
 10
5.20207
 20
2.79791
 11
5.07846
 21
2.68587
  0
LINE
  8
0
 10
5.07846
 20
2.68587
 11
4.94446
 21
2.58649
  0
LINE
  8
0
 10
4.94446
 20
2.58649
 11
4.80136
 21
2.50073
  0
LINE
  8
0
 10
4.80136
 20
2.50073
 11
4.65056
 21
2.4294
  0
LINE
  8
0
 10
4.65056
 20
2.4294
 11
4.49347
 21
2.3732
  0
LINE
  8
0
 10
4.49347
 20
2.3732
 11
4.33165
 21
2.33266
  0
LINE
  8
0
 10
4.33165
 20
2.33266
 11
4.16663
 21
2.30818
  0
LINE
  8
0
 10
4.16663
 20
2.30818
 11
4
 21
2.29999
  0
LINE
  8
0
 10
4
 20
2.29999
 11
3.83336
 21
2.30818
  0
LINE
  8
0
 10
91.8334
 20
2.30818
 11
91.6683
 21
2.33266
  0
LINE
  8
0
 10
91.6683
 20
2.33266
 11
91.5065
 21
2.3732
  0
LINE
  8
0
 10
91.5065
 20
2.3732
 11
91.3494
 21
2.4294
  0
LINE
  8
0
 10
91.3494
 20
2.4294
 11
91.1986
 21
2.50073
  0
LINE
  8
0
 10
91.1986
 20
2.50073
 11
91.0555
 21
2.58649
  0
LINE
  8
0
 10
91.0555
 20
2.58649
 11
90.9215
 21
2.68587
  0
LINE
  8
0
 10
90.9215
 20
2.68587
 11
90.7979
 21
2.79791
  0
LINE
  8
0
 10
90.7979
 20
2.79791
 11
90.6859
 21
2.92152
  0
LINE
  8
0
 10
90.6859
 20
2.92152
 11
90.5865
 21
3.05553
  0
LINE
  8
0
 10
90.5865
 20
3.05553
 11
90.5007
 21
3.19862
  0
LINE
  8
0
 10
90.5007
 20
3.19862
 11
90.4294
 21
3.34943
  0
LINE
  8
0
 10
90.4294
 20
3.34943
 11
90.3732
 21
3.50652
  0
LINE
  8
0
 10
90.3732
 20
3.50652
 11
90.3327
 21
3.66833
  0
LINE
  8
0
 10
90.3327
 20
3.66833
 11
90.3082
 21
3.83336
  0
LINE
  8
0
 10
90.3082
 20
3.83336
 11
90.3
 21
4
  0
LINE
  8
0
 10
90.3
 20
4
 11
90.3082
 21
4.16663
  0
LINE
  8
0
 10
90.3082
 20
4.16663
 11
90.3327
 21
4.33165
  0
LINE
  8
0
 10
90.3327
 20
4.33165
 11
90.3732
 21
4.49347
  0
LINE
  8
0
 10
90.3732
 20
4.49347
 11
90.4294
 21
4.65056
  0
LINE
  8
0
 10
90.4294
 20
4.65056
 11
90.5007
 21
4.80136
  0
LINE
  8
0
 10
90.5007
 20
4.80136
 11
90.5865
 21
4.94446
  0
LINE
  8
0
 10
90.5865
 20
4.94446
 11
90.6859
 21
5.07846
  0
LINE
  8
0
 10
90.6859
 20
5.07846
 11
90.7979
 21
5.20207
  0
LINE
  8
0
 10
90.7979
 20
5.20207
 11
90.9215
 21
5.31412
  0
LINE
  8
0
 10
90.9215
 20
5.31412
 11
91.0555
 21
5.4135
  0
LINE
  8
0
 10
91.0555
 20
5.4135
 11
91.1986
 21
5.49925
  0
LINE
  8
0
 10
91.1986
 20
5.49925
 11
91.3494
 21
5.57059
  0
LINE
  8
0
 10
91.3494
 20
5.57059
 11
91.5065
 21
5.62679
  0
LINE
  8
0
 10
91.5065
 20
5.62679
 11
91.6683
 21
5.66733
  0
LINE
  8
0
 10
91.6683
 20
5.66733
 11
91.8334
 21
5.6918
  0
LINE
  8
0
 10
91.8334
 20
5.6918
 11
92
 21
5.7
  0
LINE
  8
0
 10
92
 20
5.7
 11
92.1666
 21
5.6918
  0
LINE
  8
0
 10
92.1666
 20
5.6918
 11
92.3316
 21
5.66733
  0
LINE
  8
0
 10
92.3316
 20
5.66733
 11
92.4935
 21
5.62679
  0
LINE
  8
0
 10
92.4935
 20
5.62679
 11
92.6506
 21
5.57059
  0
LINE
  8
0
 10
92.6506
 20
5.57059
 11
92.8014
 21
5.49925
  0
LINE
  8
0
 10
92.8014
 20
5.49925
 11
92.9445
 21
5.4135
  0
LINE
  8
0
 10
92.9445
 20
5.4135
 11
93.0785
 21
5.31412
  0
LINE
  8
0
 10
93.0785
 20
5.31412
 11
93.2021
 21
5.20207
  0
LINE
  8
0
 10
93.2021
 20
5.20207
 11
93.3141
 21
5.07846
  0
LINE
  8
0
 10
93.3141
 20
5.07846
 11
93.4135
 21
4.94446
  0
LINE
  8
0
 10
93.4135
 20
4.94446
 11
93.4993
 21
4.80136
  0
LINE
  8
0
 10
93.4993
 20
4.80136
 11
93.5706
 21
4.65056
  0
LINE
  8
0
 10
93.5706
 20
4.65056
 11
93.6268
 21
4.49347
  0
LINE
  8
0
 10
93.6268
 20
4.49347
 11
93.6673
 21
4.33165
  0
LINE
  8
0
 10
93.6673
 20
4.33165
 11
93.6918
 21
4.16663
  0
LINE
  8
0
 10
93.6918
 20
4.16663
 11
93.7
 21
4
  0
LINE
  8
0
 10
93.7
 20
4
 11
93.6918
 21
3.83336
  0
LINE
  8
0
 10
93.6918
 20
3.83336
 11
93.6673
 21
3.66833
  0
LINE
  8
0
 10
93.6673
 20
3.66833
 11
93.6268
 21
3.50652
  0
LINE
  8
0
 10
93.6268
 20
3.50652
 11
93.5706
 21
3.34943
  0
LINE
  8
0
 10
93.5706
 20
3.34943
 11
93.4993
 21
3.19862
  0
LINE
  8
0
 10
93.4993
 20
3.19862
 11
93.4135
 21
3.05553
  0
LINE
  8
0
 10
93.4135
 20
3.05553
 11
93.3141
 21
2.92152
  0
LINE
  8
0
 10
93.3141
 20
2.92152
 11
93.2021
 21
2.79791
  0
LINE
  8
0
 10
93.2021
 20
2.79791
 11
93.0785
 21
2.68587
  0
LINE
  8
0
 10
93.0785
 20
2.68587
 11
92.9445
 21
2.58649
  0
LINE
  8
0
 10
92.9445
 20
2.58649
 11
92.8014
 21
2.50073
  0
LINE
  8
0
 10
92.8014
 20
2.50073
 11
92.6506
 21
2.4294
  0
LINE
  8
0
 10
92.6506
 20
2.4294
 11
92.4935
 21
2.3732
  0
LINE
  8
0
 10
92.4935
 20
2.3732
 11
92.3316
 21
2.33266
  0
LINE
  8
0
 10
92.3316
 20
2.33266
 11
92.1666
 21
2.30818
  0
LINE
  8
0
 10
92.1666
 20
2.30818
 11
92
 21
2.29999
  0
LINE
  8
0
 10
92
 20
2.29999
 11
91.8334
 21
2.30818
  0
ENDSEC
  0
SECTION
  2
OBJECTS
  0
DICTIONARY
  0
ENDSEC
  0
EOF
