  0
SECTION
  2
BLOCKS
  0
ENDSEC
  0
SECTION
  2
ENTITIES
  0
LINE
  8
0
 10
92.3921
 20
-29.9807
 11
92.7804
 21
-29.9231
  0
LINE
  8
0
 10
92.7804
 20
-29.9231
 11
93.1611
 21
-29.8278
  0
LINE
  8
0
 10
93.1611
 20
-29.8278
 11
93.5307
 21
-29.6955
  0
LINE
  8
0
 10
93.5307
 20
-29.6955
 11
93.8856
 21
-29.5277
  0
LINE
  8
0
 10
93.8856
 20
-29.5277
 11
94.2223
 21
-29.3259
  0
LINE
  8
0
 10
94.2223
 20
-29.3259
 11
94.5376
 21
-29.092
  0
LINE
  8
0
 10
94.5376
 20
-29.092
 11
94.8284
 21
-28.8284
  0
LINE
  8
0
 10
94.8284
 20
-28.8284
 11
95.092
 21
-28.5376
  0
LINE
  8
0
 10
95.092
 20
-28.5376
 11
95.3259
 21
-28.2223
  0
LINE
  8
0
 10
95.3259
 20
-28.2223
 11
95.5277
 21
-27.8856
  0
LINE
  8
0
 10
95.5277
 20
-27.8856
 11
95.6955
 21
-27.5307
  0
LINE
  8
0
 10
95.6955
 20
-27.5307
 11
95.8278
 21
-27.1611
  0
LINE
  8
0
 10
95.8278
 20
-27.1611
 11
95.9231
 21
-26.7804
  0
LINE
  8
0
 10
95.9231
 20
-26.7804
 11
95.9807
 21
-26.3921
  0
LINE
  8
0
 10
95.9807
 20
-26.3921
 11
96
 21
-26
  0
LINE
  8
0
 10
96
 20
-26
 11
96
 21
62
  0
LINE
  8
0
 10
96
 20
62
 11
95.9807
 21
62.3921
  0
LINE
  8
0
 10
95.9807
 20
62.3921
 11
95.9231
 21
62.7804
  0
LINE
  8
0
 10
95.9231
 20
62.7804
 11
95.8278
 21
63.1611
  0
LINE
  8
0
 10
95.8278
 20
63.1611
 11
95.6955
 21
63.5307
  0
LINE
  8
0
 10
95.6955
 20
63.5307
 11
95.5277
 21
63.8856
  0
LINE
  8
0
 10
95.5277
 20
63.8856
 11
95.3259
 21
64.2223
  0
LINE
  8
0
 10
95.3259
 20
64.2223
 11
95.092
 21
64.5376
  0
LINE
  8
0
 10
95.092
 20
64.5376
 11
94.8284
 21
64.8284
  0
LINE
  8
0
 10
94.8284
 20
64.8284
 11
94.5376
 21
65.092
  0
LINE
  8
0
 10
94.5376
 20
65.092
 11
94.2223
 21
65.3259
  0
LINE
  8
0
 10
94.2223
 20
65.3259
 11
93.8856
 21
65.5277
  0
LINE
  8
0
 10
93.8856
 20
65.5277
 11
93.5307
 21
65.6955
  0
LINE
  8
0
 10
93.5307
 20
65.6955
 11
93.1611
 21
65.8278
  0
LINE
  8
0
 10
93.1611
 20
65.8278
 11
92.7804
 21
65.9231
  0
LINE
  8
0
 10
92.7804
 20
65.9231
 11
92.3921
 21
65.9807
  0
LINE
  8
0
 10
92.3921
 20
65.9807
 11
92
 21
66
  0
LINE
  8
0
 10
92
 20
66
 11
4
 21
66
  0
LINE
  8
0
 10
4
 20
66
 11
3.60793
 21
65.9807
  0
LINE
  8
0
 10
3.60793
 20
65.9807
 11
3.21964
 21
65.9231
  0
LINE
  8
0
 10
3.21964
 20
65.9231
 11
2.83887
 21
65.8278
  0
LINE
  8
0
 10
2.83887
 20
65.8278
 11
2.46927
 21
65.6955
  0
LINE
  8
0
 10
2.46927
 20
65.6955
 11
2.11441
 21
65.5277
  0
LINE
  8
0
 10
2.11441
 20
65.5277
 11
1.77773
 21
65.3259
  0
LINE
  8
0
 10
1.77773
 20
65.3259
 11
1.46243
 21
65.092
  0
LINE
  8
0
 10
1.46243
 20
65.092
 11
1.17157
 21
64.8284
  0
LINE
  8
0
 10
1.17157
 20
64.8284
 11
0.907959
 21
64.5376
  0
LINE
  8
0
 10
0.907959
 20
64.5376
 11
0.674118
 21
64.2223
  0
LINE
  8
0
 10
0.674118
 20
64.2223
 11
0.472321
 21
63.8856
  0
LINE
  8
0
 10
0.472321
 20
63.8856
 11
0.304489
 21
63.5307
  0
LINE
  8
0
 10
0.304489
 20
63.5307
 11
0.172241
 21
63.1611
  0
LINE
  8
0
 10
0.172241
 20
63.1611
 11
0.0768585
 21
62.7804
  0
LINE
  8
0
 10
0.0768585
 20
62.7804
 11
0.0192566
 21
62.3921
  0
LINE
  8
0
 10
0.0192566
 20
62.3921
 11
0
 21
62
  0
LINE
  8
0
 10
0
 20
62
 11
0
 21
59.4
  0
LINE
  8
0
 10
0
 20
59.4
 11
28.6
 21
59.4
  0
LINE
  8
0
 10
28.6
 20
59.4
 11
28.747
 21
59.3928
  0
LINE
  8
0
 10
28.747
 20
59.3928
 11
28.8926
 21
59.3712
  0
LINE
  8
0
 10
28.8926
 20
59.3712
 11
29.0354
 21
59.3354
  0
LINE
  8
0
 10
29.0354
 20
59.3354
 11
29.174
 21
59.2858
  0
LINE
  8
0
 10
29.174
 20
59.2858
 11
29.3071
 21
59.2229
  0
LINE
  8
0
 10
29.3071
 20
59.2229
 11
29.4333
 21
59.1472
  0
LINE
  8
0
 10
29.4333
 20
59.1472
 11
29.5516
 21
59.0595
  0
LINE
  8
0
 10
29.5516
 20
59.0595
 11
29.6606
 21
58.9606
  0
LINE
  8
0
 10
29.6606
 20
58.9606
 11
29.7595
 21
58.8516
  0
LINE
  8
0
 10
29.7595
 20
58.8516
 11
29.8472
 21
58.7334
  0
LINE
  8
0
 10
29.8472
 20
58.7334
 11
29.9229
 21
58.6071
  0
LINE
  8
0
 10
29.9229
 20
58.6071
 11
29.9858
 21
58.474
  0
LINE
  8
0
 10
29.9858
 20
58.474
 11
30.0354
 21
58.3354
  0
LINE
  8
0
 10
30.0354
 20
58.3354
 11
30.0712
 21
58.1926
  0
LINE
  8
0
 10
30.0712
 20
58.1926
 11
30.0928
 21
58.047
  0
LINE
  8
0
 10
30.0928
 20
58.047
 11
30.1
 21
57.9
  0
LINE
  8
0
 10
30.1
 20
57.9
 11
30.1
 21
38.9
  0
LINE
  8
0
 10
30.1
 20
38.9
 11
30.0928
 21
38.753
  0
LINE
  8
0
 10
30.0928
 20
38.753
 11
30.0712
 21
38.6074
  0
LINE
  8
0
 10
30.0712
 20
38.6074
 11
30.0354
 21
38.4646
  0
LINE
  8
0
 10
30.0354
 20
38.4646
 11
29.9858
 21
38.326
  0
LINE
  8
0
 10
29.9858
 20
38.326
 11
29.9229
 21
38.1929
  0
LINE
  8
0
 10
29.9229
 20
38.1929
 11
29.8472
 21
38.0666
  0
LINE
  8
0
 10
29.8472
 20
38.0666
 11
29.7595
 21
37.9484
  0
LINE
  8
0
 10
29.7595
 20
37.9484
 11
29.6606
 21
37.8393
  0
LINE
  8
0
 10
29.6606
 20
37.8393
 11
29.5516
 21
37.7405
  0
LINE
  8
0
 10
29.5516
 20
37.7405
 11
29.4333
 21
37.6528
  0
LINE
  8
0
 10
29.4333
 20
37.6528
 11
29.3071
 21
37.5771
  0
LINE
  8
0
 10
29.3071
 20
37.5771
 11
29.174
 21
37.5142
  0
LINE
  8
0
 10
29.174
 20
37.5142
 11
29.0354
 21
37.4646
  0
LINE
  8
0
 10
29.0354
 20
37.4646
 11
28.8926
 21
37.4288
  0
LINE
  8
0
 10
28.8926
 20
37.4288
 11
28.747
 21
37.4072
  0
LINE
  8
0
 10
28.747
 20
37.4072
 11
28.6
 21
37.4
  0
LINE
  8
0
 10
28.6
 20
37.4
 11
0
 21
37.4
  0
LINE
  8
0
 10
0
 20
37.4
 11
0
 21
27.5
  0
LINE
  8
0
 10
0
 20
27.5
 11
20.3
 21
27.5
  0
LINE
  8
0
 10
20.3
 20
27.5
 11
20.447
 21
27.4928
  0
LINE
  8
0
 10
20.447
 20
27.4928
 11
20.5926
 21
27.4712
  0
LINE
  8
0
 10
20.5926
 20
27.4712
 11
20.7354
 21
27.4354
  0
LINE
  8
0
 10
20.7354
 20
27.4354
 11
20.874
 21
27.3858
  0
LINE
  8
0
 10
20.874
 20
27.3858
 11
21.0071
 21
27.3229
  0
LINE
  8
0
 10
21.0071
 20
27.3229
 11
21.1333
 21
27.2472
  0
LINE
  8
0
 10
21.1333
 20
27.2472
 11
21.2516
 21
27.1595
  0
LINE
  8
0
 10
21.2516
 20
27.1595
 11
21.3606
 21
27.0606
  0
LINE
  8
0
 10
21.3606
 20
27.0606
 11
21.4595
 21
26.9516
  0
LINE
  8
0
 10
21.4595
 20
26.9516
 11
21.5472
 21
26.8333
  0
LINE
  8
0
 10
21.5472
 20
26.8333
 11
21.6229
 21
26.7071
  0
LINE
  8
0
 10
21.6229
 20
26.7071
 11
21.6858
 21
26.574
  0
LINE
  8
0
 10
21.6858
 20
26.574
 11
21.7354
 21
26.4354
  0
LINE
  8
0
 10
21.7354
 20
26.4354
 11
21.7712
 21
26.2926
  0
LINE
  8
0
 10
21.7712
 20
26.2926
 11
21.7928
 21
26.147
  0
LINE
  8
0
 10
21.7928
 20
26.147
 11
21.8
 21
26
  0
LINE
  8
0
 10
21.8
 20
26
 11
21.8
 21
8.29999
  0
LINE
  8
0
 10
21.8
 20
8.29999
 11
21.7928
 21
8.15297
  0
LINE
  8
0
 10
21.7928
 20
8.15297
 11
21.7712
 21
8.00735
  0
LINE
  8
0
 10
21.7712
 20
8.00735
 11
21.7354
 21
7.86456
  0
LINE
  8
0
 10
21.7354
 20
7.86456
 11
21.6858
 21
7.72597
  0
LINE
  8
0
 10
21.6858
 20
7.72597
 11
21.6229
 21
7.5929
  0
LINE
  8
0
 10
21.6229
 20
7.5929
 11
21.5472
 21
7.46663
  0
LINE
  8
0
 10
21.5472
 20
7.46663
 11
21.4595
 21
7.3484
  0
LINE
  8
0
 10
21.4595
 20
7.3484
 11
21.3606
 21
7.23933
  0
LINE
  8
0
 10
21.3606
 20
7.23933
 11
21.2516
 21
7.14047
  0
LINE
  8
0
 10
21.2516
 20
7.14047
 11
21.1333
 21
7.05278
  0
LINE
  8
0
 10
21.1333
 20
7.05278
 11
21.0071
 21
6.97711
  0
LINE
  8
0
 10
21.0071
 20
6.97711
 11
20.874
 21
6.91417
  0
LINE
  8
0
 10
20.874
 20
6.91417
 11
20.7354
 21
6.86458
  0
LINE
  8
0
 10
20.7354
 20
6.86458
 11
20.5926
 21
6.82881
  0
LINE
  8
0
 10
20.5926
 20
6.82881
 11
20.447
 21
6.80721
  0
LINE
  8
0
 10
20.447
 20
6.80721
 11
20.3
 21
6.79999
  0
LINE
  8
0
 10
20.3
 20
6.79999
 11
0
 21
6.79999
  0
LINE
  8
0
 10
0
 20
6.79999
 11
0
 21
4
  0
LINE
  8
0
 10
0
 20
4
 11
0.0192566
 21
3.60793
  0
LINE
  8
0
 10
0.0192566
 20
3.60793
 11
0.0768585
 21
3.21964
  0
LINE
  8
0
 10
0.0768585
 20
3.21964
 11
0.172241
 21
2.83887
  0
LINE
  8
0
 10
0.172241
 20
2.83887
 11
0.304489
 21
2.46927
  0
LINE
  8
0
 10
0.304489
 20
2.46927
 11
0.472321
 21
2.11441
  0
LINE
  8
0
 10
0.472321
 20
2.11441
 11
0.674118
 21
1.77773
  0
LINE
  8
0
 10
0.674118
 20
1.77773
 11
0.907959
 21
1.46243
  0
LINE
  8
0
 10
0.907959
 20
1.46243
 11
1.17157
 21
1.17157
  0
LINE
  8
0
 10
1.17157
 20
1.17157
 11
1.46243
 21
0.907959
  0
LINE
  8
0
 10
1.46243
 20
0.907959
 11
1.77773
 21
0.674118
  0
LINE
  8
0
 10
1.77773
 20
0.674118
 11
2.11441
 21
0.472321
  0
LINE
  8
0
 10
2.11441
 20
0.472321
 11
2.46927
 21
0.304489
  0
LINE
  8
0
 10
2.46927
 20
0.304489
 11
2.83887
 21
0.172241
  0
LINE
  8
0
 10
2.83887
 20
0.172241
 11
3.21964
 21
0.0768585
  0
LINE
  8
0
 10
3.21964
 20
0.0768585
 11
3.60793
 21
0.0192566
  0
LINE
  8
0
 10
3.60793
 20
0.0192566
 11
4
 21
0
  0
LINE
  8
0
 10
4
 20
0
 11
69.5
 21
0
  0
LINE
  8
0
 10
69.5
 20
0
 11
69.8921
 21
-0.0192719
  0
LINE
  8
0
 10
69.8921
 20
-0.0192719
 11
70.2803
 21
-0.0768738
  0
LINE
  8
0
 10
70.2803
 20
-0.0768738
 11
70.6611
 21
-0.172241
  0
LINE
  8
0
 10
70.6611
 20
-0.172241
 11
71.0307
 21
-0.304489
  0
LINE
  8
0
 10
71.0307
 20
-0.304489
 11
71.3856
 21
-0.472321
  0
LINE
  8
0
 10
71.3856
 20
-0.472321
 11
71.7223
 21
-0.674133
  0
LINE
  8
0
 10
71.7223
 20
-0.674133
 11
72.0376
 21
-0.907959
  0
LINE
  8
0
 10
72.0376
 20
-0.907959
 11
72.3284
 21
-1.17159
  0
LINE
  8
0
 10
72.3284
 20
-1.17159
 11
72.592
 21
-1.46243
  0
LINE
  8
0
 10
72.592
 20
-1.46243
 11
72.8259
 21
-1.77773
  0
LINE
  8
0
 10
72.8259
 20
-1.77773
 11
73.0277
 21
-2.11443
  0
LINE
  8
0
 10
73.0277
 20
-2.11443
 11
73.1955
 21
-2.46927
  0
LINE
  8
0
 10
73.1955
 20
-2.46927
 11
73.3278
 21
-2.83887
  0
LINE
  8
0
 10
73.3278
 20
-2.83887
 11
73.4231
 21
-3.21965
  0
LINE
  8
0
 10
73.4231
 20
-3.21965
 11
73.4807
 21
-3.60794
  0
LINE
  8
0
 10
73.4807
 20
-3.60794
 11
73.5
 21
-4
  0
LINE
  8
0
 10
73.5
 20
-4
 11
73.5
 21
-26
  0
LINE
  8
0
 10
73.5
 20
-26
 11
73.5193
 21
-26.3921
  0
LINE
  8
0
 10
73.5193
 20
-26.3921
 11
73.5769
 21
-26.7804
  0
LINE
  8
0
 10
73.5769
 20
-26.7804
 11
73.6722
 21
-27.1611
  0
LINE
  8
0
 10
73.6722
 20
-27.1611
 11
73.8045
 21
-27.5307
  0
LINE
  8
0
 10
73.8045
 20
-27.5307
 11
73.9723
 21
-27.8856
  0
LINE
  8
0
 10
73.9723
 20
-27.8856
 11
74.1741
 21
-28.2223
  0
LINE
  8
0
 10
74.1741
 20
-28.2223
 11
74.408
 21
-28.5376
  0
LINE
  8
0
 10
74.408
 20
-28.5376
 11
74.6716
 21
-28.8284
  0
LINE
  8
0
 10
74.6716
 20
-28.8284
 11
74.9624
 21
-29.092
  0
LINE
  8
0
 10
74.9624
 20
-29.092
 11
75.2777
 21
-29.3259
  0
LINE
  8
0
 10
75.2777
 20
-29.3259
 11
75.6144
 21
-29.5277
  0
LINE
  8
0
 10
75.6144
 20
-29.5277
 11
75.9693
 21
-29.6955
  0
LINE
  8
0
 10
75.9693
 20
-29.6955
 11
76.3389
 21
-29.8278
  0
LINE
  8
0
 10
76.3389
 20
-29.8278
 11
76.7196
 21
-29.9231
  0
LINE
  8
0
 10
76.7196
 20
-29.9231
 11
77.1079
 21
-29.9807
  0
LINE
  8
0
 10
77.1079
 20
-29.9807
 11
77.5
 21
-30
  0
LINE
  8
0
 10
77.5
 20
-30
 11
92
 21
-30
  0
LINE
  8
0
 10
92
 20
-30
 11
92.3921
 21
-29.9807
  0
LINE
  8
0
 10
3.83336
 20
60.3082
 11
3.66833
 21
60.3327
  0
LINE
  8
0
 10
3.66833
 20
60.3327
 11
3.50652
 21
60.3732
  0
LINE
  8
0
 10
3.50652
 20
60.3732
 11
3.34943
 21
60.4294
  0
LINE
  8
0
 10
3.34943
 20
60.4294
 11
3.19862
 21
60.5007
  0
LINE
  8
0
 10
3.19862
 20
60.5007
 11
3.05553
 21
60.5865
  0
LINE
  8
0
 10
3.05553
 20
60.5865
 11
2.92152
 21
60.6859
  0
LINE
  8
0
 10
2.92152
 20
60.6859
 11
2.79791
 21
60.7979
  0
LINE
  8
0
 10
2.79791
 20
60.7979
 11
2.68587
 21
60.9215
  0
LINE
  8
0
 10
2.68587
 20
60.9215
 11
2.58649
 21
61.0555
  0
LINE
  8
0
 10
2.58649
 20
61.0555
 11
2.50073
 21
61.1986
  0
LINE
  8
0
 10
2.50073
 20
61.1986
 11
2.4294
 21
61.3494
  0
LINE
  8
0
 10
2.4294
 20
61.3494
 11
2.3732
 21
61.5065
  0
LINE
  8
0
 10
2.3732
 20
61.5065
 11
2.33266
 21
61.6683
  0
LINE
  8
0
 10
2.33266
 20
61.6683
 11
2.30818
 21
61.8334
  0
LINE
  8
0
 10
2.30818
 20
61.8334
 11
2.29999
 21
62
  0
LINE
  8
0
 10
2.29999
 20
62
 11
2.30818
 21
62.1666
  0
LINE
  8
0
 10
2.30818
 20
62.1666
 11
2.33266
 21
62.3316
  0
LINE
  8
0
 10
2.33266
 20
62.3316
 11
2.3732
 21
62.4935
  0
LINE
  8
0
 10
2.3732
 20
62.4935
 11
2.4294
 21
62.6506
  0
LINE
  8
0
 10
2.4294
 20
62.6506
 11
2.50073
 21
62.8014
  0
LINE
  8
0
 10
2.50073
 20
62.8014
 11
2.58649
 21
62.9445
  0
LINE
  8
0
 10
2.58649
 20
62.9445
 11
2.68587
 21
63.0785
  0
LINE
  8
0
 10
2.68587
 20
63.0785
 11
2.79791
 21
63.2021
  0
LINE
  8
0
 10
2.79791
 20
63.2021
 11
2.92152
 21
63.3141
  0
LINE
  8
0
 10
2.92152
 20
63.3141
 11
3.05553
 21
63.4135
  0
LINE
  8
0
 10
3.05553
 20
63.4135
 11
3.19862
 21
63.4993
  0
LINE
  8
0
 10
3.19862
 20
63.4993
 11
3.34943
 21
63.5706
  0
LINE
  8
0
 10
3.34943
 20
63.5706
 11
3.50652
 21
63.6268
  0
LINE
  8
0
 10
3.50652
 20
63.6268
 11
3.66833
 21
63.6673
  0
LINE
  8
0
 10
3.66833
 20
63.6673
 11
3.83336
 21
63.6918
  0
LINE
  8
0
 10
3.83336
 20
63.6918
 11
4
 21
63.7
  0
LINE
  8
0
 10
4
 20
63.7
 11
4.16663
 21
63.6918
  0
LINE
  8
0
 10
4.16663
 20
63.6918
 11
4.33165
 21
63.6673
  0
LINE
  8
0
 10
4.33165
 20
63.6673
 11
4.49347
 21
63.6268
  0
LINE
  8
0
 10
4.49347
 20
63.6268
 11
4.65056
 21
63.5706
  0
LINE
  8
0
 10
4.65056
 20
63.5706
 11
4.80136
 21
63.4993
  0
LINE
  8
0
 10
4.80136
 20
63.4993
 11
4.94446
 21
63.4135
  0
LINE
  8
0
 10
4.94446
 20
63.4135
 11
5.07846
 21
63.3141
  0
LINE
  8
0
 10
5.07846
 20
63.3141
 11
5.20207
 21
63.2021
  0
LINE
  8
0
 10
5.20207
 20
63.2021
 11
5.31412
 21
63.0785
  0
LINE
  8
0
 10
5.31412
 20
63.0785
 11
5.4135
 21
62.9445
  0
LINE
  8
0
 10
5.4135
 20
62.9445
 11
5.49925
 21
62.8014
  0
LINE
  8
0
 10
5.49925
 20
62.8014
 11
5.57059
 21
62.6506
  0
LINE
  8
0
 10
5.57059
 20
62.6506
 11
5.62679
 21
62.4935
  0
LINE
  8
0
 10
5.62679
 20
62.4935
 11
5.66733
 21
62.3316
  0
LINE
  8
0
 10
5.66733
 20
62.3316
 11
5.6918
 21
62.1666
  0
LINE
  8
0
 10
5.6918
 20
62.1666
 11
5.7
 21
62
  0
LINE
  8
0
 10
5.7
 20
62
 11
5.6918
 21
61.8334
  0
LINE
  8
0
 10
5.6918
 20
61.8334
 11
5.66733
 21
61.6683
  0
LINE
  8
0
 10
5.66733
 20
61.6683
 11
5.62679
 21
61.5065
  0
LINE
  8
0
 10
5.62679
 20
61.5065
 11
5.57059
 21
61.3494
  0
LINE
  8
0
 10
5.57059
 20
61.3494
 11
5.49925
 21
61.1986
  0
LINE
  8
0
 10
5.49925
 20
61.1986
 11
5.4135
 21
61.0555
  0
LINE
  8
0
 10
5.4135
 20
61.0555
 11
5.31412
 21
60.9215
  0
LINE
  8
0
 10
5.31412
 20
60.9215
 11
5.20207
 21
60.7979
  0
LINE
  8
0
 10
5.20207
 20
60.7979
 11
5.07846
 21
60.6859
  0
LINE
  8
0
 10
5.07846
 20
60.6859
 11
4.94446
 21
60.5865
  0
LINE
  8
0
 10
4.94446
 20
60.5865
 11
4.80136
 21
60.5007
  0
LINE
  8
0
 10
4.80136
 20
60.5007
 11
4.65056
 21
60.4294
  0
LINE
  8
0
 10
4.65056
 20
60.4294
 11
4.49347
 21
60.3732
  0
LINE
  8
0
 10
4.49347
 20
60.3732
 11
4.33165
 21
60.3327
  0
LINE
  8
0
 10
4.33165
 20
60.3327
 11
4.16663
 21
60.3082
  0
LINE
  8
0
 10
4.16663
 20
60.3082
 11
4
 21
60.3
  0
LINE
  8
0
 10
4
 20
60.3
 11
3.83336
 21
60.3082
  0
LINE
  8
0
 10
91.8334
 20
60.3082
 11
91.6683
 21
60.3327
  0
LINE
  8
0
 10
91.6683
 20
60.3327
 11
91.5065
 21
60.3732
  0
LINE
  8
0
 10
91.5065
 20
60.3732
 11
91.3494
 21
60.4294
  0
LINE
  8
0
 10
91.3494
 20
60.4294
 11
91.1986
 21
60.5007
  0
LINE
  8
0
 10
91.1986
 20
60.5007
 11
91.0555
 21
60.5865
  0
LINE
  8
0
 10
91.0555
 20
60.5865
 11
90.9215
 21
60.6859
  0
LINE
  8
0
 10
90.9215
 20
60.6859
 11
90.7979
 21
60.7979
  0
LINE
  8
0
 10
90.7979
 20
60.7979
 11
90.6859
 21
60.9215
  0
LINE
  8
0
 10
90.6859
 20
60.9215
 11
90.5865
 21
61.0555
  0
LINE
  8
0
 10
90.5865
 20
61.0555
 11
90.5007
 21
61.1986
  0
LINE
  8
0
 10
90.5007
 20
61.1986
 11
90.4294
 21
61.3494
  0
LINE
  8
0
 10
90.4294
 20
61.3494
 11
90.3732
 21
61.5065
  0
LINE
  8
0
 10
90.3732
 20
61.5065
 11
90.3327
 21
61.6683
  0
LINE
  8
0
 10
90.3327
 20
61.6683
 11
90.3082
 21
61.8334
  0
LINE
  8
0
 10
90.3082
 20
61.8334
 11
90.3
 21
62
  0
LINE
  8
0
 10
90.3
 20
62
 11
90.3082
 21
62.1666
  0
LINE
  8
0
 10
90.3082
 20
62.1666
 11
90.3327
 21
62.3316
  0
LINE
  8
0
 10
90.3327
 20
62.3316
 11
90.3732
 21
62.4935
  0
LINE
  8
0
 10
90.3732
 20
62.4935
 11
90.4294
 21
62.6506
  0
LINE
  8
0
 10
90.4294
 20
62.6506
 11
90.5007
 21
62.8014
  0
LINE
  8
0
 10
90.5007
 20
62.8014
 11
90.5865
 21
62.9445
  0
LINE
  8
0
 10
90.5865
 20
62.9445
 11
90.6859
 21
63.0785
  0
LINE
  8
0
 10
90.6859
 20
63.0785
 11
90.7979
 21
63.2021
  0
LINE
  8
0
 10
90.7979
 20
63.2021
 11
90.9215
 21
63.3141
  0
LINE
  8
0
 10
90.9215
 20
63.3141
 11
91.0555
 21
63.4135
  0
LINE
  8
0
 10
91.0555
 20
63.4135
 11
91.1986
 21
63.4993
  0
LINE
  8
0
 10
91.1986
 20
63.4993
 11
91.3494
 21
63.5706
  0
LINE
  8
0
 10
91.3494
 20
63.5706
 11
91.5065
 21
63.6268
  0
LINE
  8
0
 10
91.5065
 20
63.6268
 11
91.6683
 21
63.6673
  0
LINE
  8
0
 10
91.6683
 20
63.6673
 11
91.8334
 21
63.6918
  0
LINE
  8
0
 10
91.8334
 20
63.6918
 11
92
 21
63.7
  0
LINE
  8
0
 10
92
 20
63.7
 11
92.1666
 21
63.6918
  0
LINE
  8
0
 10
92.1666
 20
63.6918
 11
92.3316
 21
63.6673
  0
LINE
  8
0
 10
92.3316
 20
63.6673
 11
92.4935
 21
63.6268
  0
LINE
  8
0
 10
92.4935
 20
63.6268
 11
92.6506
 21
63.5706
  0
LINE
  8
0
 10
92.6506
 20
63.5706
 11
92.8014
 21
63.4993
  0
LINE
  8
0
 10
92.8014
 20
63.4993
 11
92.9445
 21
63.4135
  0
LINE
  8
0
 10
92.9445
 20
63.4135
 11
93.0785
 21
63.3141
  0
LINE
  8
0
 10
93.0785
 20
63.3141
 11
93.2021
 21
63.2021
  0
LINE
  8
0
 10
93.2021
 20
63.2021
 11
93.3141
 21
63.0785
  0
LINE
  8
0
 10
93.3141
 20
63.0785
 11
93.4135
 21
62.9445
  0
LINE
  8
0
 10
93.4135
 20
62.9445
 11
93.4993
 21
62.8014
  0
LINE
  8
0
 10
93.4993
 20
62.8014
 11
93.5706
 21
62.6506
  0
LINE
  8
0
 10
93.5706
 20
62.6506
 11
93.6268
 21
62.4935
  0
LINE
  8
0
 10
93.6268
 20
62.4935
 11
93.6673
 21
62.3316
  0
LINE
  8
0
 10
93.6673
 20
62.3316
 11
93.6918
 21
62.1666
  0
LINE
  8
0
 10
93.6918
 20
62.1666
 11
93.7
 21
62
  0
LINE
  8
0
 10
93.7
 20
62
 11
93.6918
 21
61.8334
  0
LINE
  8
0
 10
93.6918
 20
61.8334
 11
93.6673
 21
61.6683
  0
LINE
  8
0
 10
93.6673
 20
61.6683
 11
93.6268
 21
61.5065
  0
LINE
  8
0
 10
93.6268
 20
61.5065
 11
93.5706
 21
61.3494
  0
LINE
  8
0
 10
93.5706
 20
61.3494
 11
93.4993
 21
61.1986
  0
LINE
  8
0
 10
93.4993
 20
61.1986
 11
93.4135
 21
61.0555
  0
LINE
  8
0
 10
93.4135
 20
61.0555
 11
93.3141
 21
60.9215
  0
LINE
  8
0
 10
93.3141
 20
60.9215
 11
93.2021
 21
60.7979
  0
LINE
  8
0
 10
93.2021
 20
60.7979
 11
93.0785
 21
60.6859
  0
LINE
  8
0
 10
93.0785
 20
60.6859
 11
92.9445
 21
60.5865
  0
LINE
  8
0
 10
92.9445
 20
60.5865
 11
92.8014
 21
60.5007
  0
LINE
  8
0
 10
92.8014
 20
60.5007
 11
92.6506
 21
60.4294
  0
LINE
  8
0
 10
92.6506
 20
60.4294
 11
92.4935
 21
60.3732
  0
LINE
  8
0
 10
92.4935
 20
60.3732
 11
92.3316
 21
60.3327
  0
LINE
  8
0
 10
92.3316
 20
60.3327
 11
92.1666
 21
60.3082
  0
LINE
  8
0
 10
92.1666
 20
60.3082
 11
92
 21
60.3
  0
LINE
  8
0
 10
92
 20
60.3
 11
91.8334
 21
60.3082
  0
LINE
  8
0
 10
44.45
 20
30.46
 11
44.303
 21
30.4672
  0
LINE
  8
0
 10
44.303
 20
30.4672
 11
44.1574
 21
30.4888
  0
LINE
  8
0
 10
44.1574
 20
30.4888
 11
44.0146
 21
30.5246
  0
LINE
  8
0
 10
44.0146
 20
30.5246
 11
43.876
 21
30.5742
  0
LINE
  8
0
 10
43.876
 20
30.5742
 11
43.7429
 21
30.6371
  0
LINE
  8
0
 10
43.7429
 20
30.6371
 11
43.6166
 21
30.7128
  0
LINE
  8
0
 10
43.6166
 20
30.7128
 11
43.4984
 21
30.8005
  0
LINE
  8
0
 10
43.4984
 20
30.8005
 11
43.3893
 21
30.8993
  0
LINE
  8
0
 10
43.3893
 20
30.8993
 11
43.2905
 21
31.0084
  0
LINE
  8
0
 10
43.2905
 20
31.0084
 11
43.2028
 21
31.1266
  0
LINE
  8
0
 10
43.2028
 20
31.1266
 11
43.1271
 21
31.2529
  0
LINE
  8
0
 10
43.1271
 20
31.2529
 11
43.0642
 21
31.386
  0
LINE
  8
0
 10
43.0642
 20
31.386
 11
43.0146
 21
31.5246
  0
LINE
  8
0
 10
43.0146
 20
31.5246
 11
42.9788
 21
31.6674
  0
LINE
  8
0
 10
42.9788
 20
31.6674
 11
42.9572
 21
31.813
  0
LINE
  8
0
 10
42.9572
 20
31.813
 11
42.95
 21
31.96
  0
LINE
  8
0
 10
42.95
 20
31.96
 11
42.95
 21
56.56
  0
LINE
  8
0
 10
42.95
 20
56.56
 11
42.9572
 21
56.707
  0
LINE
  8
0
 10
42.9572
 20
56.707
 11
42.9788
 21
56.8526
  0
LINE
  8
0
 10
42.9788
 20
56.8526
 11
43.0146
 21
56.9954
  0
LINE
  8
0
 10
43.0146
 20
56.9954
 11
43.0642
 21
57.134
  0
LINE
  8
0
 10
43.0642
 20
57.134
 11
43.1271
 21
57.2671
  0
LINE
  8
0
 10
43.1271
 20
57.2671
 11
43.2028
 21
57.3933
  0
LINE
  8
0
 10
43.2028
 20
57.3933
 11
43.2905
 21
57.5116
  0
LINE
  8
0
 10
43.2905
 20
57.5116
 11
43.3893
 21
57.6206
  0
LINE
  8
0
 10
43.3893
 20
57.6206
 11
43.4984
 21
57.7195
  0
LINE
  8
0
 10
43.4984
 20
57.7195
 11
43.6166
 21
57.8072
  0
LINE
  8
0
 10
43.6166
 20
57.8072
 11
43.7429
 21
57.8829
  0
LINE
  8
0
 10
43.7429
 20
57.8829
 11
43.876
 21
57.9458
  0
LINE
  8
0
 10
43.876
 20
57.9458
 11
44.0146
 21
57.9954
  0
LINE
  8
0
 10
44.0146
 20
57.9954
 11
44.1574
 21
58.0312
  0
LINE
  8
0
 10
44.1574
 20
58.0312
 11
44.303
 21
58.0528
  0
LINE
  8
0
 10
44.303
 20
58.0528
 11
44.45
 21
58.06
  0
LINE
  8
0
 10
44.45
 20
58.06
 11
72.45
 21
58.06
  0
LINE
  8
0
 10
72.45
 20
58.06
 11
72.597
 21
58.0528
  0
LINE
  8
0
 10
72.597
 20
58.0528
 11
72.7426
 21
58.0312
  0
LINE
  8
0
 10
72.7426
 20
58.0312
 11
72.8854
 21
57.9954
  0
LINE
  8
0
 10
72.8854
 20
57.9954
 11
73.024
 21
57.9458
  0
LINE
  8
0
 10
73.024
 20
57.9458
 11
73.1571
 21
57.8829
  0
LINE
  8
0
 10
73.1571
 20
57.8829
 11
73.2834
 21
57.8072
  0
LINE
  8
0
 10
73.2834
 20
57.8072
 11
73.4016
 21
57.7195
  0
LINE
  8
0
 10
73.4016
 20
57.7195
 11
73.5107
 21
57.6206
  0
LINE
  8
0
 10
73.5107
 20
57.6206
 11
73.6095
 21
57.5116
  0
LINE
  8
0
 10
73.6095
 20
57.5116
 11
73.6972
 21
57.3933
  0
LINE
  8
0
 10
73.6972
 20
57.3933
 11
73.7729
 21
57.2671
  0
LINE
  8
0
 10
73.7729
 20
57.2671
 11
73.8358
 21
57.134
  0
LINE
  8
0
 10
73.8358
 20
57.134
 11
73.8854
 21
56.9954
  0
LINE
  8
0
 10
73.8854
 20
56.9954
 11
73.9212
 21
56.8526
  0
LINE
  8
0
 10
73.9212
 20
56.8526
 11
73.9428
 21
56.707
  0
LINE
  8
0
 10
73.9428
 20
56.707
 11
73.95
 21
56.56
  0
LINE
  8
0
 10
73.95
 20
56.56
 11
73.95
 21
31.96
  0
LINE
  8
0
 10
73.95
 20
31.96
 11
73.9428
 21
31.813
  0
LINE
  8
0
 10
73.9428
 20
31.813
 11
73.9212
 21
31.6674
  0
LINE
  8
0
 10
73.9212
 20
31.6674
 11
73.8854
 21
31.5246
  0
LINE
  8
0
 10
73.8854
 20
31.5246
 11
73.8358
 21
31.386
  0
LINE
  8
0
 10
73.8358
 20
31.386
 11
73.7729
 21
31.2529
  0
LINE
  8
0
 10
73.7729
 20
31.2529
 11
73.6972
 21
31.1266
  0
LINE
  8
0
 10
73.6972
 20
31.1266
 11
73.6095
 21
31.0084
  0
LINE
  8
0
 10
73.6095
 20
31.0084
 11
73.5107
 21
30.8993
  0
LINE
  8
0
 10
73.5107
 20
30.8993
 11
73.4016
 21
30.8005
  0
LINE
  8
0
 10
73.4016
 20
30.8005
 11
73.2834
 21
30.7128
  0
LINE
  8
0
 10
73.2834
 20
30.7128
 11
73.1571
 21
30.6371
  0
LINE
  8
0
 10
73.1571
 20
30.6371
 11
73.024
 21
30.5742
  0
LINE
  8
0
 10
73.024
 20
30.5742
 11
72.8854
 21
30.5246
  0
LINE
  8
0
 10
72.8854
 20
30.5246
 11
72.7426
 21
30.4888
  0
LINE
  8
0
 10
72.7426
 20
30.4888
 11
72.597
 21
30.4672
  0
LINE
  8
0
 10
72.597
 20
30.4672
 11
72.45
 21
30.46
  0
LINE
  8
0
 10
72.45
 20
30.46
 11
44.45
 21
30.46
  0
LINE
  8
0
 10
38.1
 20
38.1
 11
38.002
 21
38.1048
  0
LINE
  8
0
 10
38.002
 20
38.1048
 11
37.9049
 21
38.1192
  0
LINE
  8
0
 10
37.9049
 20
38.1192
 11
37.8097
 21
38.1431
  0
LINE
  8
0
 10
37.8097
 20
38.1431
 11
37.7173
 21
38.1761
  0
LINE
  8
0
 10
37.7173
 20
38.1761
 11
37.6286
 21
38.2181
  0
LINE
  8
0
 10
37.6286
 20
38.2181
 11
37.5444
 21
38.2685
  0
LINE
  8
0
 10
37.5444
 20
38.2685
 11
37.4656
 21
38.327
  0
LINE
  8
0
 10
37.4656
 20
38.327
 11
37.3929
 21
38.3929
  0
LINE
  8
0
 10
37.3929
 20
38.3929
 11
37.327
 21
38.4656
  0
LINE
  8
0
 10
37.327
 20
38.4656
 11
37.2685
 21
38.5444
  0
LINE
  8
0
 10
37.2685
 20
38.5444
 11
37.2181
 21
38.6286
  0
LINE
  8
0
 10
37.2181
 20
38.6286
 11
37.1761
 21
38.7173
  0
LINE
  8
0
 10
37.1761
 20
38.7173
 11
37.1431
 21
38.8097
  0
LINE
  8
0
 10
37.1431
 20
38.8097
 11
37.1192
 21
38.9049
  0
LINE
  8
0
 10
37.1192
 20
38.9049
 11
37.1048
 21
39.002
  0
LINE
  8
0
 10
37.1048
 20
39.002
 11
37.1
 21
39.1
  0
LINE
  8
0
 10
37.1
 20
39.1
 11
37.1
 21
49.4
  0
LINE
  8
0
 10
37.1
 20
49.4
 11
37.1048
 21
49.498
  0
LINE
  8
0
 10
37.1048
 20
49.498
 11
37.1192
 21
49.5951
  0
LINE
  8
0
 10
37.1192
 20
49.5951
 11
37.1431
 21
49.6903
  0
LINE
  8
0
 10
37.1431
 20
49.6903
 11
37.1761
 21
49.7827
  0
LINE
  8
0
 10
37.1761
 20
49.7827
 11
37.2181
 21
49.8714
  0
LINE
  8
0
 10
37.2181
 20
49.8714
 11
37.2685
 21
49.9556
  0
LINE
  8
0
 10
37.2685
 20
49.9556
 11
37.327
 21
50.0344
  0
LINE
  8
0
 10
37.327
 20
50.0344
 11
37.3929
 21
50.1071
  0
LINE
  8
0
 10
37.3929
 20
50.1071
 11
37.4656
 21
50.173
  0
LINE
  8
0
 10
37.4656
 20
50.173
 11
37.5444
 21
50.2314
  0
LINE
  8
0
 10
37.5444
 20
50.2314
 11
37.6286
 21
50.2819
  0
LINE
  8
0
 10
37.6286
 20
50.2819
 11
37.7173
 21
50.3239
  0
LINE
  8
0
 10
37.7173
 20
50.3239
 11
37.8097
 21
50.3569
  0
LINE
  8
0
 10
37.8097
 20
50.3569
 11
37.9049
 21
50.3808
  0
LINE
  8
0
 10
37.9049
 20
50.3808
 11
38.002
 21
50.3952
  0
LINE
  8
0
 10
38.002
 20
50.3952
 11
38.1
 21
50.4
  0
LINE
  8
0
 10
38.1
 20
50.4
 11
40.8
 21
50.4
  0
LINE
  8
0
 10
40.8
 20
50.4
 11
40.898
 21
50.3952
  0
LINE
  8
0
 10
40.898
 20
50.3952
 11
40.9951
 21
50.3808
  0
LINE
  8
0
 10
40.9951
 20
50.3808
 11
41.0903
 21
50.3569
  0
LINE
  8
0
 10
41.0903
 20
50.3569
 11
41.1827
 21
50.3239
  0
LINE
  8
0
 10
41.1827
 20
50.3239
 11
41.2714
 21
50.2819
  0
LINE
  8
0
 10
41.2714
 20
50.2819
 11
41.3556
 21
50.2314
  0
LINE
  8
0
 10
41.3556
 20
50.2314
 11
41.4344
 21
50.173
  0
LINE
  8
0
 10
41.4344
 20
50.173
 11
41.5071
 21
50.1071
  0
LINE
  8
0
 10
41.5071
 20
50.1071
 11
41.573
 21
50.0344
  0
LINE
  8
0
 10
41.573
 20
50.0344
 11
41.6315
 21
49.9556
  0
LINE
  8
0
 10
41.6315
 20
49.9556
 11
41.6819
 21
49.8714
  0
LINE
  8
0
 10
41.6819
 20
49.8714
 11
41.7239
 21
49.7827
  0
LINE
  8
0
 10
41.7239
 20
49.7827
 11
41.7569
 21
49.6903
  0
LINE
  8
0
 10
41.7569
 20
49.6903
 11
41.7808
 21
49.5951
  0
LINE
  8
0
 10
41.7808
 20
49.5951
 11
41.7952
 21
49.498
  0
LINE
  8
0
 10
41.7952
 20
49.498
 11
41.8
 21
49.4
  0
LINE
  8
0
 10
41.8
 20
49.4
 11
41.8
 21
39.1
  0
LINE
  8
0
 10
41.8
 20
39.1
 11
41.7952
 21
39.002
  0
LINE
  8
0
 10
41.7952
 20
39.002
 11
41.7808
 21
38.9049
  0
LINE
  8
0
 10
41.7808
 20
38.9049
 11
41.7569
 21
38.8097
  0
LINE
  8
0
 10
41.7569
 20
38.8097
 11
41.7239
 21
38.7173
  0
LINE
  8
0
 10
41.7239
 20
38.7173
 11
41.6819
 21
38.6286
  0
LINE
  8
0
 10
41.6819
 20
38.6286
 11
41.6315
 21
38.5444
  0
LINE
  8
0
 10
41.6315
 20
38.5444
 11
41.573
 21
38.4656
  0
LINE
  8
0
 10
41.573
 20
38.4656
 11
41.5071
 21
38.3929
  0
LINE
  8
0
 10
41.5071
 20
38.3929
 11
41.4344
 21
38.327
  0
LINE
  8
0
 10
41.4344
 20
38.327
 11
41.3556
 21
38.2685
  0
LINE
  8
0
 10
41.3556
 20
38.2685
 11
41.2714
 21
38.2181
  0
LINE
  8
0
 10
41.2714
 20
38.2181
 11
41.1827
 21
38.1761
  0
LINE
  8
0
 10
41.1827
 20
38.1761
 11
41.0903
 21
38.1431
  0
LINE
  8
0
 10
41.0903
 20
38.1431
 11
40.9951
 21
38.1192
  0
LINE
  8
0
 10
40.9951
 20
38.1192
 11
40.898
 21
38.1048
  0
LINE
  8
0
 10
40.898
 20
38.1048
 11
40.8
 21
38.1
  0
LINE
  8
0
 10
40.8
 20
38.1
 11
38.1
 21
38.1
  0
LINE
  8
0
 10
53.7
 20
16.6
 11
53.602
 21
16.6048
  0
LINE
  8
0
 10
53.602
 20
16.6048
 11
53.5049
 21
16.6192
  0
LINE
  8
0
 10
53.5049
 20
16.6192
 11
53.4097
 21
16.6431
  0
LINE
  8
0
 10
53.4097
 20
16.6431
 11
53.3173
 21
16.6761
  0
LINE
  8
0
 10
53.3173
 20
16.6761
 11
53.2286
 21
16.7181
  0
LINE
  8
0
 10
53.2286
 20
16.7181
 11
53.1444
 21
16.7685
  0
LINE
  8
0
 10
53.1444
 20
16.7685
 11
53.0656
 21
16.827
  0
LINE
  8
0
 10
53.0656
 20
16.827
 11
52.9929
 21
16.8929
  0
LINE
  8
0
 10
52.9929
 20
16.8929
 11
52.927
 21
16.9656
  0
LINE
  8
0
 10
52.927
 20
16.9656
 11
52.8685
 21
17.0444
  0
LINE
  8
0
 10
52.8685
 20
17.0444
 11
52.8181
 21
17.1286
  0
LINE
  8
0
 10
52.8181
 20
17.1286
 11
52.7761
 21
17.2173
  0
LINE
  8
0
 10
52.7761
 20
17.2173
 11
52.7431
 21
17.3097
  0
LINE
  8
0
 10
52.7431
 20
17.3097
 11
52.7192
 21
17.4049
  0
LINE
  8
0
 10
52.7192
 20
17.4049
 11
52.7048
 21
17.502
  0
LINE
  8
0
 10
52.7048
 20
17.502
 11
52.7
 21
17.6
  0
LINE
  8
0
 10
52.7
 20
17.6
 11
52.7
 21
22.4
  0
LINE
  8
0
 10
52.7
 20
22.4
 11
52.7048
 21
22.498
  0
LINE
  8
0
 10
52.7048
 20
22.498
 11
52.7192
 21
22.5951
  0
LINE
  8
0
 10
52.7192
 20
22.5951
 11
52.7431
 21
22.6903
  0
LINE
  8
0
 10
52.7431
 20
22.6903
 11
52.7761
 21
22.7827
  0
LINE
  8
0
 10
52.7761
 20
22.7827
 11
52.8181
 21
22.8714
  0
LINE
  8
0
 10
52.8181
 20
22.8714
 11
52.8685
 21
22.9556
  0
LINE
  8
0
 10
52.8685
 20
22.9556
 11
52.927
 21
23.0344
  0
LINE
  8
0
 10
52.927
 20
23.0344
 11
52.9929
 21
23.1071
  0
LINE
  8
0
 10
52.9929
 20
23.1071
 11
53.0656
 21
23.173
  0
LINE
  8
0
 10
53.0656
 20
23.173
 11
53.1444
 21
23.2314
  0
LINE
  8
0
 10
53.1444
 20
23.2314
 11
53.2286
 21
23.2819
  0
LINE
  8
0
 10
53.2286
 20
23.2819
 11
53.3173
 21
23.3239
  0
LINE
  8
0
 10
53.3173
 20
23.3239
 11
53.4097
 21
23.3569
  0
LINE
  8
0
 10
53.4097
 20
23.3569
 11
53.5049
 21
23.3808
  0
LINE
  8
0
 10
53.5049
 20
23.3808
 11
53.602
 21
23.3952
  0
LINE
  8
0
 10
53.602
 20
23.3952
 11
53.7
 21
23.4
  0
LINE
  8
0
 10
53.7
 20
23.4
 11
61.8
 21
23.4
  0
LINE
  8
0
 10
61.8
 20
23.4
 11
61.898
 21
23.3952
  0
LINE
  8
0
 10
61.898
 20
23.3952
 11
61.9951
 21
23.3808
  0
LINE
  8
0
 10
61.9951
 20
23.3808
 11
62.0903
 21
23.3569
  0
LINE
  8
0
 10
62.0903
 20
23.3569
 11
62.1827
 21
23.3239
  0
LINE
  8
0
 10
62.1827
 20
23.3239
 11
62.2714
 21
23.2819
  0
LINE
  8
0
 10
62.2714
 20
23.2819
 11
62.3556
 21
23.2314
  0
LINE
  8
0
 10
62.3556
 20
23.2314
 11
62.4344
 21
23.173
  0
LINE
  8
0
 10
62.4344
 20
23.173
 11
62.5071
 21
23.1071
  0
LINE
  8
0
 10
62.5071
 20
23.1071
 11
62.573
 21
23.0344
  0
LINE
  8
0
 10
62.573
 20
23.0344
 11
62.6315
 21
22.9556
  0
LINE
  8
0
 10
62.6315
 20
22.9556
 11
62.6819
 21
22.8714
  0
LINE
  8
0
 10
62.6819
 20
22.8714
 11
62.7239
 21
22.7827
  0
LINE
  8
0
 10
62.7239
 20
22.7827
 11
62.7569
 21
22.6903
  0
LINE
  8
0
 10
62.7569
 20
22.6903
 11
62.7808
 21
22.5951
  0
LINE
  8
0
 10
62.7808
 20
22.5951
 11
62.7952
 21
22.498
  0
LINE
  8
0
 10
62.7952
 20
22.498
 11
62.8
 21
22.4
  0
LINE
  8
0
 10
62.8
 20
22.4
 11
62.8
 21
17.6
  0
LINE
  8
0
 10
62.8
 20
17.6
 11
62.7952
 21
17.502
  0
LINE
  8
0
 10
62.7952
 20
17.502
 11
62.7808
 21
17.4049
  0
LINE
  8
0
 10
62.7808
 20
17.4049
 11
62.7569
 21
17.3097
  0
LINE
  8
0
 10
62.7569
 20
17.3097
 11
62.7239
 21
17.2173
  0
LINE
  8
0
 10
62.7239
 20
17.2173
 11
62.6819
 21
17.1286
  0
LINE
  8
0
 10
62.6819
 20
17.1286
 11
62.6315
 21
17.0444
  0
LINE
  8
0
 10
62.6315
 20
17.0444
 11
62.573
 21
16.9656
  0
LINE
  8
0
 10
62.573
 20
16.9656
 11
62.5071
 21
16.8929
  0
LINE
  8
0
 10
62.5071
 20
16.8929
 11
62.4344
 21
16.827
  0
LINE
  8
0
 10
62.4344
 20
16.827
 11
62.3556
 21
16.7685
  0
LINE
  8
0
 10
62.3556
 20
16.7685
 11
62.2714
 21
16.7181
  0
LINE
  8
0
 10
62.2714
 20
16.7181
 11
62.1827
 21
16.6761
  0
LINE
  8
0
 10
62.1827
 20
16.6761
 11
62.0903
 21
16.6431
  0
LINE
  8
0
 10
62.0903
 20
16.6431
 11
61.9951
 21
16.6192
  0
LINE
  8
0
 10
61.9951
 20
16.6192
 11
61.898
 21
16.6048
  0
LINE
  8
0
 10
61.898
 20
16.6048
 11
61.8
 21
16.6
  0
LINE
  8
0
 10
61.8
 20
16.6
 11
53.7
 21
16.6
  0
LINE
  8
0
 10
3.83336
 20
2.30818
 11
3.66833
 21
2.33266
  0
LINE
  8
0
 10
3.66833
 20
2.33266
 11
3.50652
 21
2.3732
  0
LINE
  8
0
 10
3.50652
 20
2.3732
 11
3.34943
 21
2.4294
  0
LINE
  8
0
 10
3.34943
 20
2.4294
 11
3.19862
 21
2.50073
  0
LINE
  8
0
 10
3.19862
 20
2.50073
 11
3.05553
 21
2.58649
  0
LINE
  8
0
 10
3.05553
 20
2.58649
 11
2.92152
 21
2.68587
  0
LINE
  8
0
 10
2.92152
 20
2.68587
 11
2.79791
 21
2.79791
  0
LINE
  8
0
 10
2.79791
 20
2.79791
 11
2.68587
 21
2.92152
  0
LINE
  8
0
 10
2.68587
 20
2.92152
 11
2.58649
 21
3.05553
  0
LINE
  8
0
 10
2.58649
 20
3.05553
 11
2.50073
 21
3.19862
  0
LINE
  8
0
 10
2.50073
 20
3.19862
 11
2.4294
 21
3.34943
  0
LINE
  8
0
 10
2.4294
 20
3.34943
 11
2.3732
 21
3.50652
  0
LINE
  8
0
 10
2.3732
 20
3.50652
 11
2.33266
 21
3.66833
  0
LINE
  8
0
 10
2.33266
 20
3.66833
 11
2.30818
 21
3.83336
  0
LINE
  8
0
 10
2.30818
 20
3.83336
 11
2.29999
 21
4
  0
LINE
  8
0
 10
2.29999
 20
4
 11
2.30818
 21
4.16663
  0
LINE
  8
0
 10
2.30818
 20
4.16663
 11
2.33266
 21
4.33165
  0
LINE
  8
0
 10
2.33266
 20
4.33165
 11
2.3732
 21
4.49347
  0
LINE
  8
0
 10
2.3732
 20
4.49347
 11
2.4294
 21
4.65056
  0
LINE
  8
0
 10
2.4294
 20
4.65056
 11
2.50073
 21
4.80136
  0
LINE
  8
0
 10
2.50073
 20
4.80136
 11
2.58649
 21
4.94446
  0
LINE
  8
0
 10
2.58649
 20
4.94446
 11
2.68587
 21
5.07846
  0
LINE
  8
0
 10
2.68587
 20
5.07846
 11
2.79791
 21
5.20207
  0
LINE
  8
0
 10
2.79791
 20
5.20207
 11
2.92152
 21
5.31412
  0
LINE
  8
0
 10
2.92152
 20
5.31412
 11
3.05553
 21
5.4135
  0
LINE
  8
0
 10
3.05553
 20
5.4135
 11
3.19862
 21
5.49925
  0
LINE
  8
0
 10
3.19862
 20
5.49925
 11
3.34943
 21
5.57059
  0
LINE
  8
0
 10
3.34943
 20
5.57059
 11
3.50652
 21
5.62679
  0
LINE
  8
0
 10
3.50652
 20
5.62679
 11
3.66833
 21
5.66733
  0
LINE
  8
0
 10
3.66833
 20
5.66733
 11
3.83336
 21
5.6918
  0
LINE
  8
0
 10
3.83336
 20
5.6918
 11
4
 21
5.7
  0
LINE
  8
0
 10
4
 20
5.7
 11
4.16663
 21
5.6918
  0
LINE
  8
0
 10
4.16663
 20
5.6918
 11
4.33165
 21
5.66733
  0
LINE
  8
0
 10
4.33165
 20
5.66733
 11
4.49347
 21
5.62679
  0
LINE
  8
0
 10
4.49347
 20
5.62679
 11
4.65056
 21
5.57059
  0
LINE
  8
0
 10
4.65056
 20
5.57059
 11
4.80136
 21
5.49925
  0
LINE
  8
0
 10
4.80136
 20
5.49925
 11
4.94446
 21
5.4135
  0
LINE
  8
0
 10
4.94446
 20
5.4135
 11
5.07846
 21
5.31412
  0
LINE
  8
0
 10
5.07846
 20
5.31412
 11
5.20207
 21
5.20207
  0
LINE
  8
0
 10
5.20207
 20
5.20207
 11
5.31412
 21
5.07846
  0
LINE
  8
0
 10
5.31412
 20
5.07846
 11
5.4135
 21
4.94446
  0
LINE
  8
0
 10
5.4135
 20
4.94446
 11
5.49925
 21
4.80136
  0
LINE
  8
0
 10
5.49925
 20
4.80136
 11
5.57059
 21
4.65056
  0
LINE
  8
0
 10
5.57059
 20
4.65056
 11
5.62679
 21
4.49347
  0
LINE
  8
0
 10
5.62679
 20
4.49347
 11
5.66733
 21
4.33165
  0
LINE
  8
0
 10
5.66733
 20
4.33165
 11
5.6918
 21
4.16663
  0
LINE
  8
0
 10
5.6918
 20
4.16663
 11
5.7
 21
4
  0
LINE
  8
0
 10
5.7
 20
4
 11
5.6918
 21
3.83336
  0
LINE
  8
0
 10
5.6918
 20
3.83336
 11
5.66733
 21
3.66833
  0
LINE
  8
0
 10
5.66733
 20
3.66833
 11
5.62679
 21
3.50652
  0
LINE
  8
0
 10
5.62679
 20
3.50652
 11
5.57059
 21
3.34943
  0
LINE
  8
0
 10
5.57059
 20
3.34943
 11
5.49925
 21
3.19862
  0
LINE
  8
0
 10
5.49925
 20
3.19862
 11
5.4135
 21
3.05553
  0
LINE
  8
0
 10
5.4135
 20
3.05553
 11
5.31412
 21
2.92152
  0
LINE
  8
0
 10
5.31412
 20
2.92152
 11
5.20207
 21
2.79791
  0
LINE
  8
0
 10
5.20207
 20
2.79791
 11
5.07846
 21
2.68587
  0
LINE
  8
0
 10
5.07846
 20
2.68587
 11
4.94446
 21
2.58649
  0
LINE
  8
0
 10
4.94446
 20
2.58649
 11
4.80136
 21
2.50073
  0
LINE
  8
0
 10
4.80136
 20
2.50073
 11
4.65056
 21
2.4294
  0
LINE
  8
0
 10
4.65056
 20
2.4294
 11
4.49347
 21
2.3732
  0
LINE
  8
0
 10
4.49347
 20
2.3732
 11
4.33165
 21
2.33266
  0
LINE
  8
0
 10
4.33165
 20
2.33266
 11
4.16663
 21
2.30818
  0
LINE
  8
0
 10
4.16663
 20
2.30818
 11
4
 21
2.29999
  0
LINE
  8
0
 10
4
 20
2.29999
 11
3.83336
 21
2.30818
  0
LINE
  8
0
 10
91.8334
 20
2.30818
 11
91.6683
 21
2.33266
  0
LINE
  8
0
 10
91.6683
 20
2.33266
 11
91.5065
 21
2.3732
  0
LINE
  8
0
 10
91.5065
 20
2.3732
 11
91.3494
 21
2.4294
  0
LINE
  8
0
 10
91.3494
 20
2.4294
 11
91.1986
 21
2.50073
  0
LINE
  8
0
 10
91.1986
 20
2.50073
 11
91.0555
 21
2.58649
  0
LINE
  8
0
 10
91.0555
 20
2.58649
 11
90.9215
 21
2.68587
  0
LINE
  8
0
 10
90.9215
 20
2.68587
 11
90.7979
 21
2.79791
  0
LINE
  8
0
 10
90.7979
 20
2.79791
 11
90.6859
 21
2.92152
  0
LINE
  8
0
 10
90.6859
 20
2.92152
 11
90.5865
 21
3.05553
  0
LINE
  8
0
 10
90.5865
 20
3.05553
 11
90.5007
 21
3.19862
  0
LINE
  8
0
 10
90.5007
 20
3.19862
 11
90.4294
 21
3.34943
  0
LINE
  8
0
 10
90.4294
 20
3.34943
 11
90.3732
 21
3.50652
  0
LINE
  8
0
 10
90.3732
 20
3.50652
 11
90.3327
 21
3.66833
  0
LINE
  8
0
 10
90.3327
 20
3.66833
 11
90.3082
 21
3.83336
  0
LINE
  8
0
 10
90.3082
 20
3.83336
 11
90.3
 21
4
  0
LINE
  8
0
 10
90.3
 20
4
 11
90.3082
 21
4.16663
  0
LINE
  8
0
 10
90.3082
 20
4.16663
 11
90.3327
 21
4.33165
  0
LINE
  8
0
 10
90.3327
 20
4.33165
 11
90.3732
 21
4.49347
  0
LINE
  8
0
 10
90.3732
 20
4.49347
 11
90.4294
 21
4.65056
  0
LINE
  8
0
 10
90.4294
 20
4.65056
 11
90.5007
 21
4.80136
  0
LINE
  8
0
 10
90.5007
 20
4.80136
 11
90.5865
 21
4.94446
  0
LINE
  8
0
 10
90.5865
 20
4.94446
 11
90.6859
 21
5.07846
  0
LINE
  8
0
 10
90.6859
 20
5.07846
 11
90.7979
 21
5.20207
  0
LINE
  8
0
 10
90.7979
 20
5.20207
 11
90.9215
 21
5.31412
  0
LINE
  8
0
 10
90.9215
 20
5.31412
 11
91.0555
 21
5.4135
  0
LINE
  8
0
 10
91.0555
 20
5.4135
 11
91.1986
 21
5.49925
  0
LINE
  8
0
 10
91.1986
 20
5.49925
 11
91.3494
 21
5.57059
  0
LINE
  8
0
 10
91.3494
 20
5.57059
 11
91.5065
 21
5.62679
  0
LINE
  8
0
 10
91.5065
 20
5.62679
 11
91.6683
 21
5.66733
  0
LINE
  8
0
 10
91.6683
 20
5.66733
 11
91.8334
 21
5.6918
  0
LINE
  8
0
 10
91.8334
 20
5.6918
 11
92
 21
5.7
  0
LINE
  8
0
 10
92
 20
5.7
 11
92.1666
 21
5.6918
  0
LINE
  8
0
 10
92.1666
 20
5.6918
 11
92.3316
 21
5.66733
  0
LINE
  8
0
 10
92.3316
 20
5.66733
 11
92.4935
 21
5.62679
  0
LINE
  8
0
 10
92.4935
 20
5.62679
 11
92.6506
 21
5.57059
  0
LINE
  8
0
 10
92.6506
 20
5.57059
 11
92.8014
 21
5.49925
  0
LINE
  8
0
 10
92.8014
 20
5.49925
 11
92.9445
 21
5.4135
  0
LINE
  8
0
 10
92.9445
 20
5.4135
 11
93.0785
 21
5.31412
  0
LINE
  8
0
 10
93.0785
 20
5.31412
 11
93.2021
 21
5.20207
  0
LINE
  8
0
 10
93.2021
 20
5.20207
 11
93.3141
 21
5.07846
  0
LINE
  8
0
 10
93.3141
 20
5.07846
 11
93.4135
 21
4.94446
  0
LINE
  8
0
 10
93.4135
 20
4.94446
 11
93.4993
 21
4.80136
  0
LINE
  8
0
 10
93.4993
 20
4.80136
 11
93.5706
 21
4.65056
  0
LINE
  8
0
 10
93.5706
 20
4.65056
 11
93.6268
 21
4.49347
  0
LINE
  8
0
 10
93.6268
 20
4.49347
 11
93.6673
 21
4.33165
  0
LINE
  8
0
 10
93.6673
 20
4.33165
 11
93.6918
 21
4.16663
  0
LINE
  8
0
 10
93.6918
 20
4.16663
 11
93.7
 21
4
  0
LINE
  8
0
 10
93.7
 20
4
 11
93.6918
 21
3.83336
  0
LINE
  8
0
 10
93.6918
 20
3.83336
 11
93.6673
 21
3.66833
  0
LINE
  8
0
 10
93.6673
 20
3.66833
 11
93.6268
 21
3.50652
  0
LINE
  8
0
 10
93.6268
 20
3.50652
 11
93.5706
 21
3.34943
  0
LINE
  8
0
 10
93.5706
 20
3.34943
 11
93.4993
 21
3.19862
  0
LINE
  8
0
 10
93.4993
 20
3.19862
 11
93.4135
 21
3.05553
  0
LINE
  8
0
 10
93.4135
 20
3.05553
 11
93.3141
 21
2.92152
  0
LINE
  8
0
 10
93.3141
 20
2.92152
 11
93.2021
 21
2.79791
  0
LINE
  8
0
 10
93.2021
 20
2.79791
 11
93.0785
 21
2.68587
  0
LINE
  8
0
 10
93.0785
 20
2.68587
 11
92.9445
 21
2.58649
  0
LINE
  8
0
 10
92.9445
 20
2.58649
 11
92.8014
 21
2.50073
  0
LINE
  8
0
 10
92.8014
 20
2.50073
 11
92.6506
 21
2.4294
  0
LINE
  8
0
 10
92.6506
 20
2.4294
 11
92.4935
 21
2.3732
  0
LINE
  8
0
 10
92.4935
 20
2.3732
 11
92.3316
 21
2.33266
  0
LINE
  8
0
 10
92.3316
 20
2.33266
 11
92.1666
 21
2.30818
  0
LINE
  8
0
 10
92.1666
 20
2.30818
 11
92
 21
2.29999
  0
LINE
  8
0
 10
92
 20
2.29999
 11
91.8334
 21
2.30818
  0
LINE
  8
0
 10
84.652
 20
-18.5329
 11
84.3074
 21
-18.4818
  0
LINE
  8
0
 10
84.3074
 20
-18.4818
 11
83.9695
 21
-18.3971
  0
LINE
  8
0
 10
83.9695
 20
-18.3971
 11
83.6415
 21
-18.2798
  0
LINE
  8
0
 10
83.6415
 20
-18.2798
 11
83.3265
 21
-18.1308
  0
LINE
  8
0
 10
83.3265
 20
-18.1308
 11
83.0277
 21
-17.9517
  0
LINE
  8
0
 10
83.0277
 20
-17.9517
 11
82.7479
 21
-17.7442
  0
LINE
  8
0
 10
82.7479
 20
-17.7442
 11
82.4898
 21
-17.5102
  0
LINE
  8
0
 10
82.4898
 20
-17.5102
 11
82.2558
 21
-17.2521
  0
LINE
  8
0
 10
82.2558
 20
-17.2521
 11
82.0483
 21
-16.9723
  0
LINE
  8
0
 10
82.0483
 20
-16.9723
 11
81.8692
 21
-16.6734
  0
LINE
  8
0
 10
81.8692
 20
-16.6734
 11
81.7202
 21
-16.3585
  0
LINE
  8
0
 10
81.7202
 20
-16.3585
 11
81.6029
 21
-16.0305
  0
LINE
  8
0
 10
81.6029
 20
-16.0305
 11
81.5182
 21
-15.6926
  0
LINE
  8
0
 10
81.5182
 20
-15.6926
 11
81.4671
 21
-15.3479
  0
LINE
  8
0
 10
81.4671
 20
-15.3479
 11
81.45
 21
-15
  0
LINE
  8
0
 10
81.45
 20
-15
 11
81.4671
 21
-14.652
  0
LINE
  8
0
 10
81.4671
 20
-14.652
 11
81.5182
 21
-14.3074
  0
LINE
  8
0
 10
81.5182
 20
-14.3074
 11
81.6029
 21
-13.9695
  0
LINE
  8
0
 10
81.6029
 20
-13.9695
 11
81.7202
 21
-13.6415
  0
LINE
  8
0
 10
81.7202
 20
-13.6415
 11
81.8692
 21
-13.3265
  0
LINE
  8
0
 10
81.8692
 20
-13.3265
 11
82.0483
 21
-13.0277
  0
LINE
  8
0
 10
82.0483
 20
-13.0277
 11
82.2558
 21
-12.7479
  0
LINE
  8
0
 10
82.2558
 20
-12.7479
 11
82.4898
 21
-12.4898
  0
LINE
  8
0
 10
82.4898
 20
-12.4898
 11
82.7479
 21
-12.2558
  0
LINE
  8
0
 10
82.7479
 20
-12.2558
 11
83.0277
 21
-12.0483
  0
LINE
  8
0
 10
83.0277
 20
-12.0483
 11
83.3265
 21
-11.8692
  0
LINE
  8
0
 10
83.3265
 20
-11.8692
 11
83.6415
 21
-11.7202
  0
LINE
  8
0
 10
83.6415
 20
-11.7202
 11
83.9695
 21
-11.6029
  0
LINE
  8
0
 10
83.9695
 20
-11.6029
 11
84.3074
 21
-11.5182
  0
LINE
  8
0
 10
84.3074
 20
-11.5182
 11
84.652
 21
-11.4671
  0
LINE
  8
0
 10
84.652
 20
-11.4671
 11
85
 21
-11.45
  0
LINE
  8
0
 10
85
 20
-11.45
 11
85.3479
 21
-11.4671
  0
LINE
  8
0
 10
85.3479
 20
-11.4671
 11
85.6926
 21
-11.5182
  0
LINE
  8
0
 10
85.6926
 20
-11.5182
 11
86.0305
 21
-11.6029
  0
LINE
  8
0
 10
86.0305
 20
-11.6029
 11
86.3585
 21
-11.7202
  0
LINE
  8
0
 10
86.3585
 20
-11.7202
 11
86.6734
 21
-11.8692
  0
LINE
  8
0
 10
86.6734
 20
-11.8692
 11
86.9723
 21
-12.0483
  0
LINE
  8
0
 10
86.9723
 20
-12.0483
 11
87.2521
 21
-12.2558
  0
LINE
  8
0
 10
87.2521
 20
-12.2558
 11
87.5102
 21
-12.4898
  0
LINE
  8
0
 10
87.5102
 20
-12.4898
 11
87.7442
 21
-12.7479
  0
LINE
  8
0
 10
87.7442
 20
-12.7479
 11
87.9517
 21
-13.0277
  0
LINE
  8
0
 10
87.9517
 20
-13.0277
 11
88.1308
 21
-13.3265
  0
LINE
  8
0
 10
88.1308
 20
-13.3265
 11
88.2798
 21
-13.6415
  0
LINE
  8
0
 10
88.2798
 20
-13.6415
 11
88.3971
 21
-13.9695
  0
LINE
  8
0
 10
88.3971
 20
-13.9695
 11
88.4818
 21
-14.3074
  0
LINE
  8
0
 10
88.4818
 20
-14.3074
 11
88.5329
 21
-14.652
  0
LINE
  8
0
 10
88.5329
 20
-14.652
 11
88.55
 21
-15
  0
LINE
  8
0
 10
88.55
 20
-15
 11
88.5329
 21
-15.3479
  0
LINE
  8
0
 10
88.5329
 20
-15.3479
 11
88.4818
 21
-15.6926
  0
LINE
  8
0
 10
88.4818
 20
-15.6926
 11
88.3971
 21
-16.0305
  0
LINE
  8
0
 10
88.3971
 20
-16.0305
 11
88.2798
 21
-16.3585
  0
LINE
  8
0
 10
88.2798
 20
-16.3585
 11
88.1308
 21
-16.6734
  0
LINE
  8
0
 10
88.1308
 20
-16.6734
 11
87.9517
 21
-16.9723
  0
LINE
  8
0
 10
87.9517
 20
-16.9723
 11
87.7442
 21
-17.2521
  0
LINE
  8
0
 10
87.7442
 20
-17.2521
 11
87.5102
 21
-17.5102
  0
LINE
  8
0
 10
87.5102
 20
-17.5102
 11
87.2521
 21
-17.7442
  0
LINE
  8
0
 10
87.2521
 20
-17.7442
 11
86.9723
 21
-17.9517
  0
LINE
  8
0
 10
86.9723
 20
-17.9517
 11
86.6734
 21
-18.1308
  0
LINE
  8
0
 10
86.6734
 20
-18.1308
 11
86.3585
 21
-18.2798
  0
LINE
  8
0
 10
86.3585
 20
-18.2798
 11
86.0305
 21
-18.3971
  0
LINE
  8
0
 10
86.0305
 20
-18.3971
 11
85.6926
 21
-18.4818
  0
LINE
  8
0
 10
85.6926
 20
-18.4818
 11
85.3479
 21
-18.5329
  0
LINE
  8
0
 10
85.3479
 20
-18.5329
 11
85
 21
-18.55
  0
LINE
  8
0
 10
85
 20
-18.55
 11
84.652
 21
-18.5329
  0
ENDSEC
  0
SECTION
  2
OBJECTS
  0
DICTIONARY
  0
ENDSEC
  0
EOF
